<svg width="176" height="209" viewBox="0 0 176 209" fill="none" xmlns="http://www.w3.org/2000/svg">
<path fill-rule="evenodd" clip-rule="evenodd" d="M0.45659 0.11803C0.0819729 0.215066 -0.0482904 0.481175 0.015518 1.01928C0.0884419 1.63414 0.392777 1.8932 1.57632 2.34721C2.38495 2.65743 4.08307 3.36109 5.35013 3.91095C6.61718 4.46082 7.8166 4.91072 8.01508 4.91072C8.21386 4.91072 9.2542 5.44 10.3266 6.08691C11.3993 6.73381 12.5193 7.2631 12.8157 7.2631C13.1118 7.2631 13.6664 7.48158 14.0475 7.74857C14.4289 8.01557 15.4883 8.59631 16.4019 9.03886C17.3158 9.4814 18.2403 10.0568 18.4567 10.3177C18.6731 10.5785 19.1345 10.7917 19.4824 10.7917C19.8299 10.7917 20.5745 11.171 21.137 11.6344C21.6995 12.0978 22.6022 12.5742 23.143 12.693C23.6837 12.8118 24.4083 13.2334 24.7532 13.6304C25.0984 14.0271 25.9129 14.5961 26.5636 14.8948C27.2144 15.1936 28.2315 15.8814 28.824 16.423C29.4165 16.9646 30.6735 17.8626 31.6174 18.4187C32.5613 18.9747 33.6769 19.7687 34.0968 20.183C35.6456 21.7114 36.6706 22.5536 36.9826 22.5536C37.159 22.5536 37.3031 22.6859 37.3031 22.8476C37.3031 23.0094 37.4496 23.1417 37.6287 23.1417C37.8077 23.1417 38.637 23.8695 39.4715 24.759C40.3057 25.6484 41.2022 26.3762 41.4633 26.3762C41.7245 26.3762 42.307 26.8726 42.7577 27.4789C43.9945 29.1426 47.391 32.5512 47.8124 32.5512C48.0162 32.5512 48.1829 32.7538 48.1829 33.0014C48.1829 33.2493 48.3814 33.5281 48.624 33.621C48.8666 33.7142 49.0651 33.9635 49.0651 34.1755C49.0651 34.3873 49.1762 34.6046 49.3124 34.6587C49.4482 34.7125 50.0154 35.352 50.5726 36.0798C51.1302 36.8076 52.0111 37.8626 52.531 38.4242C53.0506 38.9859 53.4758 39.6143 53.4758 39.821C53.4758 40.0274 53.5952 40.1965 53.7407 40.1965C54.0327 40.1965 55.3021 42.1672 55.4183 42.8003C55.4583 43.0193 55.7655 43.3907 56.1007 43.6254C56.436 43.8603 56.7103 44.1861 56.7103 44.3493C56.7103 44.5128 57.0411 45.08 57.4454 45.6102C57.8497 46.1404 58.1805 46.6652 58.1805 46.7767C58.1805 46.8881 58.5822 47.3718 59.0727 47.8517C59.5635 48.3313 59.8931 48.7239 59.8049 48.7239C59.7169 48.7239 60.128 49.4516 60.7185 50.3411C61.3092 51.2306 61.8873 51.9584 62.0035 51.9584C62.1196 51.9584 62.5025 52.8361 62.8547 53.9088C63.207 54.9815 63.8871 56.3347 64.3664 56.9163C64.8457 57.4977 65.2377 58.2063 65.2377 58.4907C65.2377 58.7753 66.0281 60.5646 66.9943 62.4671C67.9603 64.3693 69.1544 67.2418 69.6472 68.8503C70.1404 70.459 70.7599 72.0136 71.024 72.3053C71.2877 72.597 71.423 72.8358 71.3242 72.8358C71.2257 72.8358 71.3324 73.3674 71.5615 74.0173C71.7908 74.6668 71.9032 75.3946 71.8111 75.6345C71.7062 75.908 71.8197 76.0703 72.1164 76.0703C72.4466 76.0703 72.5889 76.3391 72.5889 76.9619C72.5889 77.4523 72.8065 78.3454 73.0726 78.9467C73.3384 79.548 73.5954 80.4369 73.6436 80.9221C73.7892 82.3906 74.3855 84.5977 74.6366 84.5977C74.9974 84.5977 75.1965 86.0571 74.8639 86.2626C74.6952 86.3673 74.7737 86.5564 75.0507 86.7113C75.5752 87.0051 75.7135 88.1263 75.225 88.1263C75.0154 88.1263 75.0154 88.3036 75.2253 88.6959C75.4914 89.1928 75.7405 90.4319 75.8037 91.5722C75.8146 91.7692 76.0122 91.858 76.243 91.7695C76.5494 91.6519 76.6194 91.7734 76.5027 92.2197C76.4147 92.5558 76.2292 92.831 76.0904 92.831C75.8049 92.831 76.0972 94.663 76.4189 94.8894C76.5338 94.9702 76.6118 95.6524 76.5921 96.4058C76.5727 97.1588 76.6562 97.7134 76.7782 97.6382C77.0552 97.4667 77.0714 97.9542 76.7976 98.228C76.5071 98.5185 76.4659 99.5942 76.7455 99.5942C76.8752 99.5942 76.9029 99.7979 76.8073 100.047C76.7017 100.323 76.7776 100.467 77.0002 100.415C77.2022 100.368 77.4277 100.495 77.5018 100.697C77.5759 100.899 77.4933 101.064 77.3181 101.064C76.8617 101.064 76.9255 101.62 77.4407 102.136C77.6833 102.378 77.8818 102.756 77.8818 102.976C77.8818 103.195 77.6833 103.573 77.4407 103.816C77.1981 104.058 76.9996 104.332 76.9996 104.425C76.9996 104.517 77.1981 104.593 77.4407 104.593C77.935 104.593 78.042 105.341 77.5877 105.622C77.426 105.722 77.2937 106.002 77.2937 106.245C77.2937 106.491 77.4369 106.597 77.6171 106.486C77.852 106.341 77.852 106.451 77.6171 106.891C77.1799 107.708 77.2101 107.922 77.7347 107.721C77.9773 107.628 78.1758 107.68 78.1758 107.837C78.1758 107.993 78.0588 108.122 77.9162 108.122C77.5095 108.122 77.3439 109.522 77.705 109.908C77.9417 110.16 77.9297 110.29 77.6595 110.389C77.4563 110.463 77.3536 110.627 77.4313 110.753C77.5089 110.878 77.6427 111.694 77.7283 112.565C77.8138 113.437 77.9688 114.533 78.0726 115.002C78.2058 115.604 78.1623 115.793 77.9244 115.646C77.4689 115.365 77.493 116.135 77.9553 116.633C78.1708 116.865 78.1846 116.952 77.9888 116.842C77.8021 116.738 77.5871 116.914 77.5015 117.24C77.3842 117.689 77.496 117.827 77.9829 117.832L78.6169 117.838L77.9688 118.346C77.3295 118.847 77.2457 119.67 77.7183 120.805C77.8282 121.069 77.7218 121.755 77.4815 122.33C77.1546 123.113 77.0822 124.1 77.1934 126.26C77.3319 128.956 77.2981 129.192 76.68 129.849C76.0316 130.537 76.0295 130.56 76.5824 130.985C76.9179 131.243 77.0146 131.469 76.8208 131.543C76.6415 131.611 76.2445 131.869 75.9387 132.117C75.4123 132.543 75.4262 132.558 76.191 132.395C77.0443 132.213 77.3413 132.709 76.5585 133.009C76.3159 133.102 76.1175 133.438 76.1175 133.756C76.1175 134.074 75.9522 134.518 75.7499 134.744C74.5108 136.125 74.4138 136.35 75.0568 136.35C75.2821 136.35 75.542 136.547 75.6343 136.788C75.7314 137.041 75.6517 137.196 75.4453 137.155C75.2027 137.108 75.0862 137.575 75.0821 138.611C75.0789 139.45 74.9795 140.232 74.8616 140.35C74.7437 140.468 74.6472 140.94 74.6472 141.398C74.6472 141.883 74.5026 142.2 74.3008 142.158C74.1103 142.117 73.8301 142.481 73.6783 142.966C73.5263 143.451 73.2775 144.09 73.1258 144.385C72.9741 144.681 72.77 145.607 72.6724 146.444C72.5565 147.435 72.3063 148.099 71.9538 148.349C71.6562 148.56 71.4127 149.028 71.4127 149.387C71.4127 149.746 71.1551 150.226 70.8405 150.453C70.2868 150.852 70.2912 151.529 70.8449 151.187C71.4712 150.8 71.0507 151.478 70.163 152.287C69.4723 152.916 69.3926 153.066 69.876 152.826C70.4076 152.562 70.6373 152.587 70.9972 152.948C71.2463 153.197 71.3677 153.534 71.2672 153.697C71.1663 153.86 71.2198 153.993 71.3862 153.993C72.0152 153.993 71.3268 154.848 70.452 155.152C69.766 155.392 69.6222 155.555 69.8751 155.808C70.1277 156.06 70.313 156.06 70.6188 155.806C70.8425 155.62 71.1201 155.563 71.2351 155.678C71.3504 155.793 71.5565 155.706 71.6929 155.485C72.0958 154.834 72.865 155.322 72.6615 156.099C72.5648 156.469 72.4319 156.609 72.3657 156.411C72.1655 155.81 71.7509 156.01 71.9129 156.629C71.9958 156.947 72.2137 157.178 72.3966 157.143C72.8482 157.058 72.6454 158.683 72.1414 159.187C71.9255 159.403 71.6194 159.58 71.4612 159.58C71.303 159.58 71.2439 159.848 71.3298 160.176C71.4409 160.602 71.6441 160.722 72.0387 160.597C72.7303 160.378 73.1099 161.208 72.6527 161.94C72.2698 162.552 72.5289 162.936 73.0394 162.513C73.4596 162.164 74.1944 163.145 74.7728 164.827C75.066 165.68 75.3747 165.98 76.2651 166.277C76.8826 166.484 77.6909 166.98 78.0617 167.38C78.7751 168.15 79.2429 168.357 78.8718 167.74C78.7218 167.49 78.8103 167.502 79.1485 167.776C79.579 168.125 79.646 168.112 79.646 167.678C79.646 167.402 79.8116 167.233 80.0136 167.303C80.2159 167.372 80.3759 167.781 80.3697 168.21C80.3632 168.638 80.4623 168.989 80.5902 168.989C80.7178 168.989 80.8222 168.804 80.8222 168.577C80.8222 168.351 81.2389 168.02 81.7482 167.842C83.0217 167.398 83.4687 167.437 83.4687 167.992C83.4687 168.302 83.6286 168.403 83.9338 168.286C84.1897 168.188 84.5205 168.107 84.669 168.107C84.8175 168.107 84.9389 167.931 84.9389 167.716C84.9389 167.17 86.6788 166.694 87.6838 166.963C88.7177 167.242 89.2743 167.043 89.5052 166.316C89.7042 165.689 90.1224 165.574 90.297 166.098C90.365 166.302 90.7022 166.13 91.1301 165.672C91.7632 164.995 92.0052 164.924 93.1549 165.081C94.342 165.243 94.3955 165.284 93.743 165.527C93.0481 165.787 93.0432 165.809 93.5892 166.211C93.965 166.488 94.2685 166.532 94.4984 166.341C94.6884 166.183 94.9306 166.141 95.0371 166.247C95.1435 166.354 95.2306 166.287 95.2306 166.098C95.2306 165.909 95.0653 165.746 94.863 165.736C94.661 165.726 94.8104 165.592 95.195 165.438C95.6114 165.271 96.028 165.265 96.2242 165.422C96.4056 165.568 96.9763 165.777 97.4927 165.888C98.1037 166.018 98.3792 166.225 98.2819 166.479C98.1273 166.882 99.7592 167.891 100.067 167.583C100.159 167.491 99.9359 167.097 99.5704 166.706L98.9062 165.997L99.7883 166.377C100.273 166.586 100.926 166.925 101.239 167.13C101.638 167.392 101.916 167.412 102.177 167.195C102.449 166.969 102.723 167.089 103.206 167.645C103.568 168.061 104.072 168.405 104.325 168.411C104.58 168.416 105.038 168.61 105.345 168.842C105.652 169.075 106.007 169.201 106.134 169.122C106.26 169.044 106.538 169.229 106.752 169.533C106.965 169.838 107.57 170.181 108.095 170.297C108.621 170.412 109.051 170.624 109.051 170.768C109.051 170.913 109.613 171.295 110.301 171.617C110.988 171.939 111.385 172.207 111.183 172.213C110.981 172.219 110.815 172.365 110.815 172.538C110.815 172.724 111.069 172.771 111.44 172.653C111.839 172.527 111.997 172.565 111.876 172.76C111.773 172.928 111.822 173.148 111.987 173.25C112.151 173.352 112.285 173.295 112.285 173.123C112.285 172.952 112.682 172.812 113.168 172.812C113.692 172.812 114.05 172.966 114.05 173.191C114.05 173.4 114.704 173.953 115.503 174.419C116.302 174.886 116.93 175.41 116.899 175.584C116.868 175.758 117.088 175.858 117.387 175.806C117.731 175.748 117.856 175.835 117.726 176.045C117.613 176.228 117.749 176.63 118.028 176.938C118.477 177.435 118.602 177.451 119.132 177.08C119.664 176.707 119.831 176.732 120.639 177.299C121.139 177.649 121.709 178.14 121.906 178.388C122.224 178.789 122.265 178.781 122.274 178.325C122.284 177.774 123.012 177.619 123.312 178.105C123.412 178.267 123.354 178.399 123.182 178.399C123.011 178.399 122.871 178.531 122.871 178.693C122.871 178.855 123.003 178.987 123.165 178.987C123.326 178.987 123.996 179.509 124.654 180.147C125.311 180.785 126.022 181.24 126.233 181.159C126.445 181.078 126.697 181.218 126.794 181.47C126.89 181.721 127.14 181.928 127.349 181.928C127.558 181.928 127.9 182.203 128.111 182.54C128.326 182.884 128.678 183.082 128.912 182.992C129.151 182.901 129.469 183.088 129.65 183.428C129.913 183.919 130.047 183.959 130.412 183.656C130.77 183.359 130.907 183.37 131.122 183.711C131.269 183.943 131.391 184.24 131.394 184.371C131.396 184.502 131.54 184.521 131.712 184.415C131.885 184.308 132.095 184.486 132.18 184.81C132.289 185.226 132.542 185.376 133.046 185.32C133.441 185.277 133.736 185.388 133.708 185.57C133.626 186.105 134.081 186.926 134.459 186.926C135.272 186.926 136.407 187.718 136.671 188.47C136.827 188.915 137.146 189.279 137.38 189.279C137.613 189.279 137.881 189.477 137.974 189.72C138.067 189.964 138.509 190.163 138.961 190.165C139.532 190.169 139.658 190.246 139.38 190.423C139.084 190.61 139.07 190.73 139.326 190.889C139.516 191.006 139.739 191.033 139.823 190.95C140.059 190.714 141.101 191.688 141.574 192.587C141.808 193.032 142.199 193.395 142.442 193.395C142.686 193.395 142.961 193.594 143.054 193.837C143.147 194.079 143.423 194.278 143.666 194.278C144.399 194.278 146.376 195.52 146.559 196.094C146.652 196.389 146.852 196.646 147.003 196.667C147.154 196.687 147.405 196.72 147.562 196.74C147.877 196.781 148.64 197.428 149.375 198.279C150.078 199.092 151.163 199.865 151.6 199.865C151.81 199.865 151.982 199.988 151.982 200.139C151.982 200.29 152.243 200.496 152.563 200.597C152.882 200.699 153.582 201.204 154.118 201.72C155.081 202.648 155.707 203.017 157.422 203.669C157.907 203.854 158.868 204.521 159.559 205.151C160.249 205.781 161.076 206.38 161.396 206.482C161.717 206.584 161.979 206.791 161.979 206.941C161.979 207.092 162.106 207.216 162.261 207.216C162.415 207.216 163.029 207.547 163.625 207.951C164.856 208.787 165.45 208.861 166.246 208.28C166.754 207.908 166.768 207.764 166.415 206.589C165.487 203.509 164.773 201.805 164.111 201.098C163.909 200.882 163.744 200.513 163.744 200.279C163.744 199.793 162.455 197.659 161.987 197.37C161.816 197.264 161.746 197.064 161.832 196.925C162.112 196.471 160.802 193.415 160.394 193.571C160.186 193.651 159.846 193.512 159.638 193.262C159.37 192.939 159.359 192.807 159.601 192.807C159.851 192.807 159.858 192.65 159.627 192.219C159.454 191.896 159.416 191.623 159.543 191.613C159.67 191.602 159.476 191.474 159.113 191.328C158.665 191.148 158.451 190.815 158.451 190.3C158.451 189.863 158.324 189.616 158.155 189.721C157.992 189.822 157.78 189.698 157.683 189.446C157.586 189.194 157.356 189.073 157.17 189.176C156.971 189.288 156.985 189.202 157.204 188.966C157.506 188.642 157.445 188.456 156.88 187.967C156.074 187.271 155.155 185.616 155.424 185.346C155.525 185.245 155.388 185.162 155.118 185.162C154.849 185.162 154.628 185.03 154.628 184.868C154.628 184.706 154.384 184.574 154.086 184.574C153.366 184.574 152.454 183.537 152.672 182.968C152.789 182.663 152.671 182.516 152.312 182.516C152.019 182.516 151.539 182.251 151.247 181.928C150.754 181.383 150.752 181.339 151.219 181.339C151.501 181.339 151.637 181.202 151.528 181.025C151.422 180.853 151.149 180.782 150.923 180.869C150.664 180.968 150.512 180.83 150.512 180.497C150.512 179.777 150.199 179.518 149.764 179.879C149.51 180.09 149.353 180.046 149.232 179.73C149.137 179.483 149.188 179.281 149.345 179.281C149.501 179.281 149.629 179.149 149.629 178.987C149.629 178.825 149.398 178.69 149.115 178.685C148.832 178.68 148.269 178.229 147.865 177.682C147.461 177.135 147.064 176.706 146.983 176.73C146.726 176.804 145.274 175.207 145.444 175.037C145.534 174.947 145.375 174.617 145.09 174.303C144.806 173.988 144.655 173.599 144.755 173.436C144.856 173.274 144.671 172.704 144.344 172.168C144.018 171.633 143.75 170.913 143.75 170.569C143.749 170.225 143.568 169.794 143.347 169.611C143.127 169.428 142.655 168.353 142.298 167.223C141.941 166.092 141.539 165.167 141.405 165.167C141.271 165.167 141.188 164.77 141.222 164.285C141.255 163.8 141.202 163.403 141.104 163.403C141.005 163.403 140.68 162.708 140.381 161.859C140.083 161.01 139.705 160.144 139.542 159.935C139.34 159.676 139.35 159.45 139.575 159.225C139.819 158.981 139.78 158.803 139.424 158.543C139.16 158.349 138.91 158.007 138.87 157.783C138.83 157.558 138.524 156.598 138.189 155.649C137.855 154.701 137.644 153.822 137.721 153.698C137.798 153.573 137.664 153.308 137.423 153.108C137.182 152.908 136.985 152.526 136.985 152.258C136.985 151.991 136.775 151.471 136.518 151.104C136.261 150.737 136.121 150.254 136.206 150.031C136.358 149.636 135.991 148.193 135.476 147.161C135.336 146.88 135.221 146.524 135.221 146.371C135.221 146.218 135.067 145.719 134.88 145.264C134.692 144.809 134.564 144.322 134.597 144.182C134.629 144.042 134.439 143.596 134.174 143.191C133.876 142.737 133.753 142.144 133.854 141.643C133.943 141.196 133.923 140.737 133.81 140.624C133.697 140.511 133.593 140.329 133.58 140.222C133.567 140.114 133.465 139.695 133.354 139.291C133.243 138.886 133.088 138.092 133.009 137.526C132.93 136.96 132.79 136.166 132.7 135.762C132.609 135.358 132.492 134.614 132.44 134.11C132.387 133.605 132.262 132.931 132.16 132.612C132.059 132.292 131.917 131.183 131.845 130.147C131.773 129.111 131.635 127.933 131.54 127.529C131.446 127.124 131.325 126.132 131.273 125.323C131.221 124.515 131.097 123.522 130.998 123.118C130.899 122.714 130.754 121.655 130.676 120.766C130.387 117.495 130.123 115.864 129.839 115.579C129.53 115.271 129.593 114.062 129.929 113.855C130.118 113.738 130.124 113.487 129.947 113.156C129.652 112.603 129.671 111.999 130.002 111.47C130.114 111.291 130.111 111.048 129.994 110.931C129.877 110.814 129.768 110.299 129.752 109.787C129.737 109.275 129.62 107.997 129.493 106.945C129.367 105.894 129.227 103.578 129.183 101.8C129.138 100.021 129.075 98.4988 129.042 98.418C129.008 98.3371 129.005 97.9728 129.035 97.6081C129.065 97.2344 128.884 96.8672 128.619 96.7654C128.326 96.6531 128.152 96.2393 128.155 95.6639C128.157 95.157 128.115 94.2792 128.062 93.7132C128.004 93.0995 128.142 92.4764 128.404 92.1694C128.779 91.7301 128.781 91.6549 128.421 91.6549C128.095 91.6549 128.008 91.2317 128.038 89.7853C128.06 88.757 128.162 87.7781 128.266 87.6105C128.37 87.4426 128.262 86.9327 128.025 86.4773C127.789 86.0218 127.703 85.5781 127.835 85.491C128.138 85.2911 128.143 84.3037 127.84 84.3037C127.717 84.3037 127.626 83.9067 127.64 83.4215C127.654 82.9363 127.778 82.5394 127.915 82.5394C128.296 82.5394 128.211 81.9569 127.765 81.5105C127.498 81.2435 127.397 80.5628 127.459 79.4466C127.535 78.084 127.474 77.8111 127.123 77.9458C126.887 78.036 126.694 78.0804 126.694 78.044C126.694 78.0075 126.816 77.5503 126.966 77.028C127.133 76.4452 127.133 76.0133 126.966 75.9098C126.816 75.8174 126.694 75.4943 126.694 75.1923C126.694 74.89 126.345 74.3684 125.919 74.0334C125.493 73.6982 125.261 73.4198 125.404 73.4145C125.548 73.4095 125.408 73.211 125.094 72.9734C124.606 72.6044 124.594 72.5417 125.011 72.5417C125.324 72.5417 125.438 72.3835 125.33 72.1007C125.237 71.8581 124.985 71.6596 124.771 71.6596C124.556 71.6596 124.303 71.4279 124.207 71.145C123.84 70.0617 122.629 69.5457 120.234 69.451C118.968 69.401 117.663 69.2161 117.334 69.0396C117.004 68.8635 116.386 68.7191 115.961 68.7191C115.535 68.7191 114.964 68.6018 114.692 68.4583C114.42 68.3148 113.667 68.1234 113.02 68.0331C112.374 67.9428 111.261 67.662 110.549 67.4088C109.836 67.1557 109.191 67.011 109.115 67.0869C109.038 67.163 108.596 67.0289 108.131 66.7884C107.667 66.5482 107.282 66.4544 107.277 66.5796C107.272 66.7052 107.095 66.5808 106.885 66.3035C106.674 66.0265 105.917 65.5305 105.204 65.2017C104.489 64.873 103.177 64.1905 102.288 63.6853C101.398 63.1801 99.9009 62.5209 98.9603 62.2204C98.0196 61.9198 96.9102 61.4067 96.4947 61.0798C96.0792 60.7531 95.5728 60.4858 95.3694 60.4858C95.1659 60.4858 94.9201 60.2788 94.823 60.0262C94.726 59.7733 94.5134 59.6486 94.3505 59.7495C94.1876 59.85 94.0544 59.7768 94.0544 59.5866C94.0544 59.3766 93.7662 59.2961 93.3193 59.3816C92.915 59.459 92.5842 59.4225 92.5842 59.3008C92.5842 59.179 92.2533 58.9961 91.849 58.8947C91.4447 58.7932 91.1139 58.5851 91.1139 58.4319C91.1139 57.9981 89.3705 56.3215 89.0956 56.4914C88.9609 56.5746 88.5716 56.3826 88.2302 56.0648C87.8891 55.7469 87.4721 55.487 87.3036 55.487C87.1351 55.487 86.9972 55.3546 86.9972 55.1929C86.9972 55.0312 86.7326 54.8989 86.4091 54.8989C86.0857 54.8989 85.821 54.7865 85.821 54.6495C85.821 54.5122 85.2585 54.1485 84.5713 53.8409C83.8842 53.5333 83.012 52.9179 82.6339 52.473C82.2557 52.0284 81.7688 51.6643 81.5523 51.6643C81.3356 51.6643 80.9813 51.4991 80.7652 51.2968C80.5491 51.0948 79.878 50.6769 79.2741 50.3685C78.6701 50.0597 78.1758 49.696 78.1758 49.5598C78.1758 49.4234 77.9761 49.312 77.7318 49.312C77.4877 49.312 77.0672 49.0541 76.7973 48.7389C76.5274 48.4236 76.198 48.2331 76.0651 48.3151C75.9322 48.3975 75.8234 48.3287 75.8234 48.1625C75.8234 47.9967 75.0627 47.2948 74.1326 46.6032C73.2026 45.9116 72.3637 45.2388 72.2678 45.108C72.1722 44.9771 71.9738 44.9104 71.8267 44.9592C71.68 45.0083 71.5206 44.9551 71.4727 44.841C71.2101 44.2149 68.6698 41.9237 67.6771 41.4171C67.0417 41.0927 66.3489 40.6193 66.1378 40.365C65.9266 40.1106 65.6008 39.9024 65.4141 39.9024C65.2271 39.9024 64.8707 39.6707 64.622 39.3878C64.3732 39.105 63.0588 37.8808 61.7009 36.6679C60.3433 35.4549 58.3673 33.6224 57.3096 32.5959C56.2522 31.5691 54.9901 30.5285 54.5049 30.2835C53.6172 29.8351 52.6039 28.8439 51.7965 27.6339C51.5548 27.2716 50.9126 26.8961 50.3556 26.7917C49.8028 26.6882 49.2536 26.443 49.1345 26.2471C48.9248 25.9016 48.0477 25.4276 47.4478 25.3353C46.7703 25.2312 45.9482 24.7463 45.251 24.0394C44.8419 23.6248 43.6805 22.6383 42.6695 21.847C41.6589 21.0557 40.8317 20.3165 40.8317 20.2042C40.8317 20.0915 40.203 19.681 39.435 19.2917C38.6669 18.9024 37.796 18.2849 37.5001 17.9194C37.204 17.5542 36.8403 17.3304 36.6915 17.4222C36.5427 17.5142 36.421 17.4654 36.421 17.3137C36.421 17.1622 36.024 16.8735 35.5389 16.6726C35.0537 16.4718 34.6567 16.1975 34.6567 16.0631C34.6567 15.5091 24.9434 9.61548 24.0304 9.61548C23.9072 9.61548 23.2183 9.21852 22.4993 8.73334C21.7804 8.24816 20.9894 7.8512 20.7412 7.8512C20.4933 7.8512 20.1154 7.68006 19.9017 7.47129C19.4994 7.07785 17.6928 6.25863 17.5411 6.40065C17.4937 6.44476 16.895 6.12778 16.2111 5.69583C15.5268 5.26417 14.7573 4.91072 14.5009 4.91072C13.9425 4.91072 12.9483 4.41995 12.2223 3.78628C11.9321 3.53281 11.4028 3.28493 11.0461 3.23553C10.6895 3.18583 10.067 2.99911 9.66264 2.82092C3.87842 0.268583 2.00181 -0.282463 0.45659 0.11803ZM154.922 27.1113C154.922 27.1922 154.988 27.2584 155.069 27.2584C155.15 27.2584 155.216 27.1922 155.216 27.1113C155.216 27.0305 155.15 26.9643 155.069 26.9643C154.988 26.9643 154.922 27.0305 154.922 27.1113ZM155.068 29.5031C155.178 30.6134 155.663 34.354 156.145 37.8156C156.627 41.2768 156.954 44.3864 156.872 44.7257C156.79 45.0647 156.64 46.1362 156.539 47.1066C156.438 48.077 156.227 49.6251 156.07 50.5467C155.913 51.4682 155.797 52.6591 155.813 53.1931C155.859 54.7663 155.329 62.6438 155.034 64.7495C154.967 65.2347 154.795 66.4641 154.653 67.4815C154.512 68.4986 154.464 69.591 154.547 69.9088C154.63 70.2267 154.529 70.6901 154.322 70.9392C154.115 71.1882 153.932 72.0145 153.914 72.7755C153.896 73.5365 153.794 74.2963 153.688 74.4645C153.581 74.6324 153.419 75.5587 153.326 76.5229C153.141 78.4595 152.967 79.6724 152.594 81.6572C152.247 83.4977 152.372 86.6681 152.823 87.4844C153.139 88.0569 153.123 88.283 152.719 88.899C152.455 89.3025 152.296 89.7897 152.365 89.982C152.434 90.1743 152.366 90.5728 152.215 90.8671C152.063 91.1617 151.891 93.9055 151.832 96.9645C151.737 101.937 151.778 102.558 152.221 102.825C152.681 103.101 152.678 103.146 152.178 103.445C151.77 103.689 151.689 103.958 151.846 104.548C151.96 104.977 152.08 105.901 152.113 106.602C152.145 107.302 152.32 107.967 152.501 108.079C152.86 108.301 152.845 110.401 152.481 110.976C152.357 111.172 152.383 111.569 152.538 111.859C153.108 112.92 153.502 114.442 153.493 115.546C153.491 115.829 153.615 116.061 153.77 116.061C154.089 116.061 153.866 117.337 153.37 118.358C153.117 118.878 153.13 119.183 153.428 119.659C153.759 120.19 153.746 120.333 153.339 120.63C152.906 120.947 152.92 121.051 153.49 121.776C154.048 122.485 154.073 122.654 153.719 123.316C153.376 123.957 153.384 124.106 153.779 124.397C154.411 124.864 154.814 126.487 154.244 126.268C153.914 126.141 153.841 126.438 153.885 127.71C153.916 128.591 154.089 129.46 154.271 129.641C154.502 129.872 154.51 130.14 154.299 130.534C154.133 130.844 154.065 131.519 154.148 132.033C154.586 134.758 154.706 135.126 155.104 134.973C155.328 134.887 155.51 134.963 155.51 135.142C155.51 135.322 155.378 135.468 155.216 135.468C155.055 135.468 154.922 135.608 154.922 135.779C154.922 135.951 155.031 136.024 155.164 135.942C155.297 135.86 155.644 136.457 155.937 137.271C156.33 138.363 156.419 139.166 156.28 140.351C156.128 141.645 156.179 141.986 156.547 142.128C156.897 142.262 156.973 142.631 156.877 143.723C156.798 144.626 156.875 145.186 157.087 145.257C157.32 145.336 157.293 145.526 156.999 145.881C156.683 146.264 156.665 146.447 156.925 146.607C157.116 146.726 157.323 147.41 157.385 148.129C157.526 149.773 157.86 151.053 158.148 151.053C158.27 151.053 158.306 151.384 158.229 151.789C158.151 152.195 158.219 152.691 158.379 152.892C158.539 153.093 158.632 153.49 158.586 153.772C158.54 154.056 158.687 154.287 158.912 154.287C159.202 154.287 159.288 154.567 159.206 155.243C159.035 156.669 159.321 157.802 159.806 157.615C160.1 157.503 160.215 157.71 160.215 158.348C160.215 159.472 160.493 160.213 160.834 160.002C160.979 159.913 161.097 159.98 161.097 160.151C161.097 160.322 160.951 160.462 160.772 160.462C160.572 160.462 160.533 160.66 160.673 160.977C160.798 161.26 160.926 162.021 160.958 162.667C160.99 163.314 161.233 164.356 161.498 164.982C161.763 165.609 161.979 166.237 161.979 166.379C161.979 166.521 162.079 166.637 162.202 166.637C162.434 166.637 162.842 167.504 163.478 169.347C163.771 170.197 163.94 170.369 164.24 170.12C164.452 169.944 164.636 169.849 164.649 169.909C164.661 169.969 164.733 170.614 164.808 171.342C165.068 173.867 166.058 175.993 166.769 175.553C166.941 175.447 166.979 175.513 166.859 175.707C166.744 175.894 166.796 176.047 166.974 176.047C167.187 176.047 167.231 176.406 167.104 177.085C166.946 177.93 167.027 178.226 167.542 178.672C167.89 178.974 168.154 179.333 168.13 179.471C167.998 180.205 168.217 180.699 168.732 180.834C169.131 180.938 169.272 181.175 169.19 181.603C169.124 181.943 169.175 182.222 169.303 182.222C169.431 182.222 169.784 182.784 170.087 183.471C170.39 184.159 170.76 184.807 170.909 184.912C171.059 185.017 171.103 185.305 171.008 185.552C170.914 185.799 171.012 186.148 171.228 186.327C171.443 186.505 171.779 187.035 171.973 187.504C172.167 187.973 172.479 188.298 172.666 188.227C173.177 188.031 173.009 179.794 172.44 177.144C171.741 173.89 171.702 173.545 171.525 169.149C171.434 166.891 171.218 164.873 171.044 164.665C170.871 164.456 170.844 164.285 170.986 164.285C171.285 164.285 171.281 162.47 170.979 161.983C170.866 161.8 170.918 161.381 171.094 161.052C171.302 160.664 171.316 160.28 171.135 159.956C170.859 159.463 170.983 156.609 171.317 155.757C171.412 155.515 171.515 153.464 171.545 151.2C171.575 148.935 171.766 146.09 171.969 144.878C172.172 143.665 172.373 141.932 172.416 141.028C172.494 139.381 172.659 138.655 173.582 135.909C173.854 135.1 174.106 134.041 174.142 133.554C174.178 133.067 174.308 132.507 174.431 132.308C174.554 132.109 174.727 131.316 174.817 130.546C174.907 129.776 175.157 128.749 175.373 128.264C175.638 127.67 175.737 126.447 175.677 124.518C175.597 121.933 175.506 121.532 174.747 120.401C174.285 119.712 173.935 119.049 173.971 118.928C174.006 118.806 173.903 118.707 173.741 118.707C173.58 118.707 173.447 118.508 173.447 118.265C173.447 117.636 172.391 115.745 172.165 115.971C172.062 116.074 171.977 115.872 171.977 115.522C171.977 115.171 171.793 114.885 171.568 114.885C171.074 114.885 170.756 114.167 170.986 113.569C171.077 113.331 170.931 112.915 170.661 112.645C170.346 112.329 170.233 111.906 170.344 111.461C170.445 111.059 170.387 110.768 170.205 110.768C170.034 110.768 169.923 110.603 169.96 110.4C169.997 110.198 169.791 109.504 169.502 108.857C168.673 106.998 167.775 103.953 167.723 102.829C167.697 102.263 167.594 101.601 167.494 101.358C166.944 100.02 166.39 97.4091 166.39 96.1526C166.39 95.3607 166.231 94.5542 166.037 94.3601C165.843 94.166 165.782 94.0072 165.901 94.0072C166.02 94.0072 165.979 93.7505 165.811 93.4371C165.599 93.0389 165.602 92.8078 165.821 92.6723C165.994 92.5652 166.046 92.2594 165.935 91.9927C165.487 90.9121 165.074 89.121 164.805 87.0971C164.762 86.7737 164.644 86.3105 164.543 86.0679C164.256 85.3784 164.04 83.7747 163.89 81.2162C163.637 76.9128 163.479 75.157 163.294 74.5727C163.142 74.0943 162.938 72.6347 162.825 71.2185C162.812 71.0568 162.819 70.1306 162.84 69.1602C162.898 66.5367 162.688 63.2716 162.436 62.8637C162.314 62.6664 162.281 62.4388 162.362 62.3577C162.692 62.0275 161.902 60.1594 161.087 59.3443C160.378 58.635 160.209 58.2081 160.18 57.0534C160.16 56.2727 160.113 55.0385 160.075 54.3108C160.037 53.583 159.962 51.6937 159.909 50.1124C159.788 46.55 159.311 44.0629 158.656 43.5839C158.378 43.3807 158.157 42.827 158.157 42.3339C158.157 41.1557 157.072 34.8424 156.552 32.9923C156.325 32.1837 155.979 30.6911 155.783 29.6757C155.285 27.0987 154.819 26.9861 155.068 29.5031ZM62.5627 43.2637C62.4854 43.341 62.2469 43.1125 62.0326 42.7562C61.6606 42.1366 61.6671 42.1304 62.1734 42.6153C62.4648 42.8947 62.6401 43.1864 62.5627 43.2637ZM63.1794 43.578C63.1794 43.6589 63.1132 43.725 63.0323 43.725C62.9515 43.725 62.8853 43.6589 62.8853 43.578C62.8853 43.4972 62.9515 43.431 63.0323 43.431C63.1132 43.431 63.1794 43.4972 63.1794 43.578ZM64.8793 44.5607C64.9416 44.748 65.2209 44.9012 65.5 44.9012C65.7788 44.9012 66.3962 45.4417 66.872 46.1018C68.04 47.7232 68.9327 48.7239 69.2109 48.7239C69.3373 48.7239 70.006 49.187 70.6967 49.753C71.3877 50.3191 72.087 50.7822 72.251 50.7822C72.4151 50.7822 72.6333 51.0468 72.7359 51.3703C72.8385 51.6937 73.112 51.9584 73.3437 51.9584C73.5754 51.9584 73.7651 52.0778 73.7651 52.2233C73.7651 52.4509 75.4047 53.6124 76.2477 53.982C76.4003 54.0488 76.8523 54.4307 77.2522 54.8307C77.6521 55.2306 78.4257 55.7443 78.9715 55.9724C79.5172 56.2003 79.8886 56.5088 79.7966 56.6576C79.7046 56.8064 80.8837 57.6662 82.4166 58.5686C83.9494 59.4707 85.475 60.5537 85.8064 60.9751C86.138 61.3964 86.4091 61.6493 86.4091 61.5373C86.4091 61.425 86.5747 61.4364 86.7767 61.5629C86.979 61.689 87.3251 61.8199 87.5459 61.8531C87.7668 61.8866 88.3166 62.2915 88.7677 62.7529C89.2188 63.2142 90.4938 64.0426 91.6006 64.593C92.7077 65.1438 93.7107 65.7531 93.8297 65.9471C94.0097 66.2406 96.0413 66.8207 96.3556 66.6687C96.4082 66.6431 96.702 66.9113 97.0084 67.2645C97.3324 67.6382 97.7535 67.8343 98.0155 67.7341C98.2804 67.6323 98.8744 67.9202 99.4599 68.4342C100.007 68.9144 100.734 69.3072 101.077 69.3072C101.419 69.3072 101.7 69.4281 101.7 69.576C101.7 70.0615 104.46 71.5258 106.11 71.9163C108.225 72.4165 110.227 73.1528 110.227 73.4301C110.227 73.7238 112.942 74.6001 113.852 74.6001C114.248 74.6001 114.832 74.8318 115.15 75.1147C115.826 75.7172 116.447 77.7182 116.26 78.6888C116.166 79.1769 116.289 79.4072 116.7 79.5148C117.141 79.6301 117.207 79.7809 116.993 80.1808C116.841 80.4652 116.787 80.7677 116.872 80.8536C117.365 81.3464 117.92 85.2223 117.966 88.4936C117.995 90.5554 118.096 92.2424 118.191 92.2427C118.414 92.243 118.332 93.3521 118.09 93.5938C117.987 93.6964 118.11 94.0963 118.362 94.4821C118.663 94.9403 118.705 95.1834 118.484 95.1834C118.235 95.1834 118.23 95.341 118.466 95.7827C118.643 96.1123 118.699 96.6581 118.592 96.9957C118.469 97.3853 118.509 97.5408 118.702 97.4214C119.116 97.1653 119.477 98.4009 119.099 98.7794C118.892 98.9864 118.905 99.2554 119.141 99.633C119.384 100.022 119.395 100.327 119.179 100.67C118.897 101.117 119.235 103.712 119.751 105.056C119.84 105.286 119.788 105.475 119.637 105.475C119.485 105.475 119.437 105.673 119.53 105.914C119.622 106.156 119.784 106.301 119.888 106.237C120.209 106.039 120.192 107.657 119.869 108.048C119.687 108.268 119.678 108.416 119.847 108.416C120.002 108.416 120.147 108.893 120.169 109.476C120.191 110.059 120.374 110.993 120.576 111.55C120.808 112.193 120.838 112.639 120.657 112.769C120.248 113.062 120.305 114.667 120.741 115.128C120.944 115.342 121.052 115.841 120.98 116.236C120.907 116.639 120.971 116.88 121.125 116.784C121.277 116.691 121.412 116.986 121.426 117.44C121.481 119.3 121.733 121.194 121.965 121.485C122.1 121.655 122.115 122.058 121.997 122.381C121.877 122.711 121.964 123.396 122.196 123.951C122.422 124.492 122.479 124.857 122.323 124.76C122.07 124.604 122.225 125.277 122.825 126.941C122.913 127.183 123.001 127.514 123.022 127.676C123.042 127.837 123.239 128.743 123.459 129.689C123.782 131.075 123.788 131.522 123.491 131.999C123.288 132.323 123.255 132.507 123.417 132.406C123.843 132.143 124.038 132.591 124.196 134.198C124.273 134.977 124.613 136.541 124.951 137.673C125.874 140.756 126.07 141.654 125.952 142.264C125.894 142.568 126.026 143.165 126.246 143.59C126.467 144.015 126.577 144.545 126.492 144.767C126.407 144.99 126.499 145.172 126.697 145.172C126.92 145.172 127.004 145.445 126.919 145.892C126.84 146.301 126.935 146.672 127.137 146.749C127.332 146.824 127.583 147.453 127.694 148.146C127.805 148.839 128.041 149.581 128.219 149.796C128.397 150.01 128.568 150.546 128.599 150.987C128.63 151.427 128.81 152.16 128.998 152.615C129.186 153.071 129.34 153.691 129.34 153.995C129.34 154.298 129.472 154.628 129.634 154.728C129.796 154.828 129.928 155.142 129.928 155.425C129.928 155.708 130.16 156.197 130.443 156.51C130.726 156.824 130.989 157.379 131.028 157.744C131.089 158.318 132.643 161.963 133.471 163.472C133.625 163.753 133.751 164.304 133.751 164.697C133.751 165.09 133.916 165.487 134.118 165.578C134.321 165.67 134.221 165.709 133.898 165.665C133.549 165.618 133.327 165.381 133.351 165.082C133.377 164.75 133.176 164.579 132.76 164.579C132.136 164.579 131.464 164.046 129.829 162.255C129.37 161.753 128.873 161.416 128.726 161.507C128.579 161.599 128.458 161.485 128.458 161.255C128.458 160.961 128.129 160.846 127.355 160.87C126.428 160.898 126.268 160.815 126.348 160.349C126.414 159.965 126.313 159.844 126.017 159.958C125.759 160.057 125.474 159.865 125.295 159.472C124.932 158.676 121.823 156.232 121.458 156.457C121.314 156.546 120.914 156.296 120.57 155.901C120.223 155.501 119.758 155.254 119.524 155.344C119.266 155.443 119.026 155.269 118.908 154.896C118.802 154.561 118.525 154.287 118.294 154.287C118.062 154.287 117.872 154.175 117.872 154.038C117.872 153.703 115.563 152.676 115.331 152.907C115.046 153.193 114.05 152.551 114.05 152.082C114.05 151.851 113.785 151.52 113.462 151.347C113.138 151.173 112.873 151.119 112.873 151.225C112.873 151.332 112.676 151.255 112.436 151.055C112.195 150.855 112.081 150.557 112.183 150.392C112.301 150.202 112.028 150.141 111.445 150.227C110.796 150.322 110.521 150.244 110.521 149.963C110.521 149.743 110.289 149.476 110.006 149.369C109.724 149.262 109.309 148.994 109.086 148.773C108.864 148.553 108.487 148.447 108.249 148.538C108.01 148.63 107.305 148.298 106.675 147.799C106.047 147.302 105.388 146.984 105.211 147.093C105.034 147.203 104.617 147.001 104.285 146.644C103.878 146.208 103.614 146.105 103.476 146.329C103.19 146.791 102.287 146.392 101.501 145.457C100.839 144.671 99.9427 144.436 99.6007 144.96C99.4975 145.118 99.2658 145.156 99.0861 145.045C98.6792 144.793 98.6542 143.995 99.0532 143.995C99.2149 143.995 99.3473 143.863 99.3473 143.701C99.3473 143.54 99.1488 143.407 98.9062 143.407C98.6636 143.407 98.4651 143.62 98.4651 143.88C98.4651 144.21 98.3099 144.292 97.9505 144.153C97.6676 144.044 97.0722 143.881 96.6273 143.791C96.1824 143.701 95.8187 143.512 95.8187 143.371C95.8187 143.229 95.4955 143.113 95.1003 143.113C94.691 143.113 94.1847 142.832 93.9241 142.46C93.5477 141.923 93.4663 141.896 93.4663 142.313C93.4663 142.591 93.3428 142.819 93.1919 142.819C93.0411 142.819 92.9288 142.422 92.9426 141.937C92.9564 141.452 93.0799 141.055 93.2169 141.055C93.354 141.055 93.4663 140.923 93.4663 140.761C93.4663 140.599 93.2678 140.467 93.0252 140.467C92.4748 140.467 92.4539 139.61 92.9855 138.842C93.6809 137.837 93.8559 136.938 93.3563 136.938C92.72 136.938 92.5606 136.541 92.7723 135.482C92.8941 134.874 93.0934 134.606 93.3499 134.704C93.8339 134.89 94.1811 134.405 93.7533 134.14C93.5822 134.035 93.5227 133.695 93.6212 133.385C93.7283 133.048 93.6609 132.822 93.4542 132.822C93.2293 132.822 93.1752 132.556 93.2993 132.062C93.4228 131.569 93.3825 131.368 93.184 131.491C93.0158 131.595 92.8782 131.47 92.8782 131.213C92.8782 130.955 93.0952 130.661 93.3604 130.56C93.805 130.389 93.8045 130.347 93.3496 130.014C92.8329 129.636 92.8197 129.022 93.3193 128.609C93.5089 128.452 93.4772 128.311 93.2302 128.212C92.9432 128.096 92.9802 127.956 93.3772 127.655C93.7536 127.37 93.7894 127.251 93.501 127.244C93.1975 127.237 93.1346 126.937 93.2525 126.058C93.4154 124.844 93.2531 124.625 92.643 125.235C92.3889 125.489 92.2901 125.494 92.2901 125.252C92.2901 125.068 92.423 124.835 92.5853 124.735C92.7477 124.634 92.7991 124.228 92.6994 123.832C92.5477 123.226 92.6062 123.139 93.0661 123.286C93.5571 123.442 93.5651 123.42 93.1428 123.068C92.8844 122.853 92.7162 122.392 92.7691 122.044C92.8238 121.685 92.6774 121.34 92.431 121.245C92.149 121.137 91.9961 120.671 91.9961 119.92C91.9961 118.889 92.0637 118.78 92.6127 118.924C93.1722 119.07 93.194 119.028 92.8479 118.474C92.638 118.138 92.3827 117.915 92.2804 117.978C91.9987 118.152 92.0481 117.114 92.3304 116.928C92.6556 116.714 92.0061 113.041 91.5876 112.73C91.3547 112.557 91.3715 112.443 91.6464 112.332C91.9461 112.212 91.9196 112.053 91.5273 111.62C91.1324 111.183 91.1124 111.061 91.4359 111.058C91.7732 111.054 91.7685 111.002 91.4103 110.776C91.0657 110.558 91.0483 110.422 91.33 110.14C91.592 109.878 91.6014 109.678 91.365 109.393C91.1257 109.105 91.1392 109.004 91.4177 109.004C91.6717 109.004 91.6229 108.816 91.2671 108.423C90.9781 108.103 90.6267 107.912 90.4864 107.999C90.3465 108.085 90.2318 107.95 90.2318 107.698C90.2318 107.425 90.5002 107.23 90.8934 107.216C91.2571 107.204 91.3897 107.126 91.1874 107.045C90.9854 106.963 90.8199 106.723 90.8199 106.511C90.8199 106.299 90.6214 106.05 90.3788 105.957C89.7513 105.716 89.7992 104.299 90.4349 104.299C90.8922 104.299 90.8907 104.269 90.4164 103.922C90.0665 103.666 89.938 103.264 90.0168 102.675C90.0809 102.197 89.9627 101.635 89.7539 101.427C89.5455 101.218 89.4452 100.863 89.5313 100.639C89.6178 100.414 89.4684 99.8941 89.1997 99.4839C88.9309 99.0737 88.7962 98.5997 88.9006 98.4309C89.005 98.2621 88.9776 98.1239 88.8397 98.1239C88.7021 98.1239 88.4295 97.5267 88.2343 96.7966C87.7862 95.1208 87.7885 94.8085 88.2469 95.0408C88.4492 95.1432 88.3504 95.0135 88.0279 94.7526C87.5659 94.3789 87.5245 94.2266 87.832 94.0364C88.1211 93.8579 88.0452 93.7482 87.5409 93.6165C86.8693 93.4406 86.8679 93.4315 87.4427 93.0057C88.0149 92.5817 88.0155 92.5652 87.4668 92.1589C87.159 91.9307 87.0016 91.5916 87.1166 91.4055C87.2319 91.2191 87.1769 91.0668 86.9949 91.0668C86.8023 91.0668 86.7385 90.8309 86.8423 90.5037C86.9576 90.1405 86.8282 89.8012 86.4782 89.548C85.8884 89.1213 85.7417 87.8169 86.2442 87.4691C86.4339 87.3379 86.3665 87.2515 86.073 87.2486C85.487 87.2433 85.1256 86.4573 85.617 86.2564C85.8678 86.1538 85.8422 86.0235 85.527 85.8007C85.2844 85.6292 85.2182 85.4848 85.38 85.4799C85.5517 85.4746 85.5399 85.3811 85.3512 85.2549C85.0301 85.0399 83.7889 81.6749 83.6754 80.7104C83.6424 80.4322 83.3949 79.9473 83.1252 79.6327C82.8556 79.3181 82.7135 78.9817 82.8097 78.8855C82.9058 78.7894 82.7724 78.5465 82.5127 78.3462C82.2534 78.1457 82.0025 77.5847 81.9561 77.0995C81.9093 76.6143 81.6523 75.8865 81.385 75.4822C81.118 75.0779 80.7969 74.4163 80.6717 74.012C80.5464 73.6077 80.1977 73.1037 79.8969 72.892C79.4737 72.5941 79.417 72.3818 79.6458 71.9542C79.8245 71.6199 79.8339 71.3347 79.6696 71.2329C79.5196 71.1406 79.3123 70.6784 79.2088 70.2064C79.105 69.7342 78.828 69.1881 78.5928 68.9932C78.1552 68.63 73.6804 59.8977 73.9318 59.8977C74.0086 59.8977 73.801 59.3684 73.471 58.7215C73.1411 58.0746 72.7638 57.5453 72.6327 57.5453C72.5016 57.5453 72.2063 57.1813 71.977 56.7367C71.7476 56.2921 71.46 55.7957 71.3383 55.634C71.2163 55.4723 70.6297 54.6122 70.0342 53.7227C69.4391 52.8332 68.7777 51.9305 68.5651 51.717C68.3522 51.5032 68.1782 51.0892 68.1782 50.7972C68.1782 50.5052 67.9797 50.1015 67.7371 49.9001C67.4945 49.6986 67.296 49.3755 67.296 49.182C67.296 48.9882 66.8329 48.2887 66.2669 47.6274C65.7008 46.966 65.2377 46.2874 65.2377 46.1192C65.2377 45.951 64.8078 45.4073 64.282 44.9115C63.3605 44.042 63.3523 44.0135 64.0459 44.115C64.4417 44.1726 64.8166 44.3731 64.8793 44.5607ZM116.99 83.2745C116.99 83.3554 117.056 83.4215 117.137 83.4215C117.218 83.4215 117.284 83.3554 117.284 83.2745C117.284 83.1936 117.218 83.1275 117.137 83.1275C117.056 83.1275 116.99 83.1936 116.99 83.2745ZM117.284 85.3328C117.284 85.4137 117.35 85.4799 117.431 85.4799C117.512 85.4799 117.578 85.4137 117.578 85.3328C117.578 85.252 117.512 85.1858 117.431 85.1858C117.35 85.1858 117.284 85.252 117.284 85.3328ZM152.276 87.6852C152.276 87.7661 152.342 87.8322 152.423 87.8322C152.504 87.8322 152.57 87.7661 152.57 87.6852C152.57 87.6043 152.504 87.5382 152.423 87.5382C152.342 87.5382 152.276 87.6043 152.276 87.6852ZM152.374 88.3224C152.482 88.43 152.658 88.43 152.766 88.3224C152.874 88.2145 152.785 88.1263 152.57 88.1263C152.354 88.1263 152.266 88.2145 152.374 88.3224ZM117.578 89.1554C117.578 89.2363 117.644 89.3025 117.725 89.3025C117.806 89.3025 117.872 89.2363 117.872 89.1554C117.872 89.0746 117.806 89.0084 117.725 89.0084C117.644 89.0084 117.578 89.0746 117.578 89.1554ZM128.311 89.8906C128.211 90.0523 128.27 90.1846 128.441 90.1846C128.612 90.1846 128.752 90.0523 128.752 89.8906C128.752 89.7288 128.694 89.5965 128.622 89.5965C128.551 89.5965 128.411 89.7288 128.311 89.8906ZM158.745 91.0668C158.745 91.2285 158.733 91.4481 158.718 91.5549C158.704 91.6616 158.901 91.8657 159.155 92.0083C159.41 92.1506 159.611 92.5596 159.601 92.9166C159.592 93.2739 159.726 94.3601 159.9 95.3305C160.073 96.3008 160.283 97.6055 160.365 98.2295C160.447 98.8534 160.58 99.471 160.661 99.6015C160.742 99.7321 160.677 100.181 160.519 100.599C160.325 101.108 160.329 101.358 160.53 101.358C160.694 101.358 160.796 101.524 160.754 101.726C160.714 101.928 160.867 102.424 161.095 102.829C161.502 103.549 161.599 103.849 161.808 105.034C161.917 105.65 162.307 107.168 162.865 109.151C163.047 109.798 163.273 110.658 163.367 111.062C163.461 111.466 163.675 111.887 163.843 111.996C164.012 112.105 164.198 112.568 164.258 113.025C164.318 113.482 164.558 114.149 164.791 114.507C165.023 114.865 165.214 115.486 165.214 115.886C165.214 116.287 165.346 116.696 165.508 116.796C165.67 116.896 165.802 117.308 165.802 117.713C165.802 118.199 165.919 118.376 166.146 118.235C166.373 118.095 166.43 118.179 166.314 118.481C166.209 118.755 166.425 119.208 166.852 119.609C167.245 119.978 167.566 120.529 167.566 120.834C167.566 121.139 167.699 121.307 167.86 121.207C168.032 121.101 168.154 121.393 168.154 121.905C168.154 122.514 168.328 122.84 168.719 122.963C169.1 123.084 169.357 123.544 169.509 124.38C169.634 125.06 169.697 125.75 169.65 125.911C169.604 126.073 169.518 126.976 169.459 127.918C169.401 128.86 169.092 130.382 168.773 131.3C168.454 132.218 168.119 133.464 168.028 134.07C167.938 134.675 167.718 135.734 167.539 136.422C167.361 137.11 167.177 138.213 167.132 138.873C167.087 139.532 166.971 140.326 166.875 140.637C166.779 140.948 166.63 142.307 166.544 143.658C166.458 145.008 166.313 146.234 166.222 146.382C165.849 146.985 165.789 148.273 166.105 148.864C166.328 149.281 166.355 149.831 166.184 150.494C166.042 151.044 166.004 152.131 166.1 152.909C166.196 153.687 166.191 154.376 166.088 154.439C165.908 154.551 165.946 156.632 166.145 157.522C166.199 157.764 166.052 157.963 165.819 157.963C165.32 157.963 164.334 156.386 164.221 155.408C164.132 154.639 163.78 153.183 163.523 152.523C163.429 152.28 163.319 151.579 163.277 150.964C163.236 150.349 163.048 149.66 162.859 149.433C162.67 149.205 162.466 148.385 162.405 147.61C162.184 144.797 162.017 143.732 161.707 143.154C161.533 142.829 161.391 142.144 161.391 141.631C161.391 140.391 160.534 135.476 160.188 134.733C159.707 133.699 159.081 130.92 159.295 130.765C159.553 130.579 159.503 127.591 159.207 125.547C159.085 124.7 158.943 123.31 158.891 122.459C158.84 121.609 158.7 119.589 158.579 117.972C158.459 116.355 158.374 114.502 158.39 113.855C158.406 113.209 158.346 112.481 158.257 112.238C158.062 111.71 157.864 108.812 157.734 104.593C157.682 102.895 157.615 101.439 157.586 101.358C157.52 101.178 157.583 95.8539 157.66 95.0364C157.691 94.713 157.848 94.351 158.01 94.2322C158.196 94.0955 158.179 94.0146 157.962 94.0117C157.586 94.0067 157.604 92.1453 157.989 91.2873C158.237 90.733 158.745 90.5851 158.745 91.0668ZM157.961 91.851C158.069 91.9586 158.245 91.9586 158.353 91.851C158.461 91.7431 158.372 91.6549 158.157 91.6549C157.941 91.6549 157.853 91.7431 157.961 91.851ZM75.8234 92.39C75.8234 92.4708 75.8896 92.537 75.9704 92.537C76.0513 92.537 76.1175 92.4708 76.1175 92.39C76.1175 92.3091 76.0513 92.243 75.9704 92.243C75.8896 92.243 75.8234 92.3091 75.8234 92.39ZM88.4675 96.2126C88.4675 96.2935 88.5336 96.3596 88.6145 96.3596C88.6954 96.3596 88.7615 96.2935 88.7615 96.2126C88.7615 96.1317 88.6954 96.0656 88.6145 96.0656C88.5336 96.0656 88.4675 96.1317 88.4675 96.2126ZM76.9996 98.565C76.9996 98.6459 76.9334 98.712 76.8526 98.712C76.7717 98.712 76.7056 98.6459 76.7056 98.565C76.7056 98.4841 76.7717 98.418 76.8526 98.418C76.9334 98.418 76.9996 98.4841 76.9996 98.565ZM90.3788 105.475C90.4788 105.637 90.6928 105.769 90.8546 105.769C91.0163 105.769 91.0669 105.637 90.9669 105.475C90.8669 105.313 90.6528 105.181 90.4911 105.181C90.3294 105.181 90.2788 105.313 90.3788 105.475ZM152.276 110.621C152.276 110.702 152.342 110.768 152.423 110.768C152.504 110.768 152.57 110.702 152.57 110.621C152.57 110.54 152.504 110.474 152.423 110.474C152.342 110.474 152.276 110.54 152.276 110.621ZM120.225 112.091C120.225 112.172 120.291 112.238 120.372 112.238C120.453 112.238 120.519 112.172 120.519 112.091C120.519 112.01 120.453 111.944 120.372 111.944C120.291 111.944 120.225 112.01 120.225 112.091ZM153.452 112.091C153.452 112.172 153.386 112.238 153.305 112.238C153.224 112.238 153.158 112.172 153.158 112.091C153.158 112.01 153.224 111.944 153.305 111.944C153.386 111.944 153.452 112.01 153.452 112.091ZM153.942 114.787C153.834 114.894 153.746 114.806 153.746 114.591C153.746 114.375 153.834 114.287 153.942 114.394C154.05 114.502 154.05 114.679 153.942 114.787ZM130.026 115.375C130.134 115.482 130.311 115.482 130.418 115.375C130.526 115.267 130.438 115.179 130.222 115.179C130.007 115.179 129.919 115.267 130.026 115.375ZM92.388 120.374C92.4959 120.481 92.6724 120.481 92.7803 120.374C92.8879 120.266 92.7997 120.178 92.5842 120.178C92.3686 120.178 92.2804 120.266 92.388 120.374ZM76.7056 122.236C76.7056 122.451 76.7938 122.54 76.9017 122.432C77.0093 122.324 77.0093 122.148 76.9017 122.04C76.7938 121.932 76.7056 122.02 76.7056 122.236ZM158.745 126.794C158.745 126.874 158.679 126.941 158.598 126.941C158.517 126.941 158.451 126.874 158.451 126.794C158.451 126.713 158.517 126.647 158.598 126.647C158.679 126.647 158.745 126.713 158.745 126.794ZM75.0392 133.606C75.1471 133.713 75.3235 133.713 75.4314 133.606C75.5391 133.498 75.4509 133.41 75.2353 133.41C75.0198 133.41 74.9316 133.498 75.0392 133.606ZM93.0252 136.35C93.1252 136.512 93.2652 136.644 93.3366 136.644C93.4081 136.644 93.4663 136.512 93.4663 136.35C93.4663 136.188 93.326 136.056 93.1549 136.056C92.9838 136.056 92.9252 136.188 93.0252 136.35ZM73.471 140.761C73.471 140.976 73.5592 141.065 73.6672 140.957C73.7748 140.849 73.7748 140.673 73.6672 140.565C73.5592 140.457 73.471 140.545 73.471 140.761ZM156.687 141.496C156.687 141.577 156.62 141.643 156.54 141.643C156.459 141.643 156.393 141.577 156.393 141.496C156.393 141.415 156.459 141.349 156.54 141.349C156.62 141.349 156.687 141.415 156.687 141.496ZM96.1127 142.819C96.1127 142.981 96.2371 143.113 96.3894 143.113C96.5417 143.113 96.7479 142.981 96.8478 142.819C96.9478 142.657 96.8232 142.525 96.5712 142.525C96.3192 142.525 96.1127 142.657 96.1127 142.819ZM72.5154 143.283C72.3939 143.405 72.2948 143.774 72.2948 144.103C72.2948 144.536 72.3836 144.612 72.6165 144.379C72.7933 144.203 72.8926 143.833 72.8371 143.559C72.7815 143.285 72.6368 143.161 72.5154 143.283ZM104.64 145.76C104.64 145.975 104.728 146.063 104.836 145.956C104.944 145.848 104.944 145.671 104.836 145.564C104.728 145.456 104.64 145.544 104.64 145.76ZM157.765 146.544C157.657 146.652 157.569 146.563 157.569 146.348C157.569 146.132 157.657 146.044 157.765 146.152C157.872 146.26 157.872 146.436 157.765 146.544ZM71.7067 146.642C71.7067 146.857 71.795 146.946 71.9029 146.838C72.0105 146.73 72.0105 146.554 71.9029 146.446C71.795 146.338 71.7067 146.426 71.7067 146.642ZM107.434 147.23C107.534 147.392 107.681 147.524 107.762 147.524C107.843 147.524 107.828 147.392 107.728 147.23C107.628 147.068 107.48 146.936 107.399 146.936C107.318 146.936 107.334 147.068 107.434 147.23ZM112.579 149.876C112.579 150.038 112.72 150.17 112.891 150.17C113.062 150.17 113.12 150.038 113.02 149.876C112.921 149.715 112.781 149.582 112.709 149.582C112.638 149.582 112.579 149.715 112.579 149.876ZM69.9425 151.494C69.9425 151.574 70.0086 151.641 70.0895 151.641C70.1703 151.641 70.2365 151.574 70.2365 151.494C70.2365 151.413 70.1703 151.347 70.0895 151.347C70.0086 151.347 69.9425 151.413 69.9425 151.494ZM71.4127 152.082C71.4127 152.163 71.3465 152.229 71.2657 152.229C71.1848 152.229 71.1187 152.163 71.1187 152.082C71.1187 152.001 71.1848 151.935 71.2657 151.935C71.3465 151.935 71.4127 152.001 71.4127 152.082ZM116.5 152.425C116.608 152.532 116.784 152.532 116.892 152.425C117 152.317 116.912 152.229 116.696 152.229C116.481 152.229 116.392 152.317 116.5 152.425ZM71.4127 152.67C71.4127 152.751 71.3465 152.817 71.2657 152.817C71.1848 152.817 71.1187 152.751 71.1187 152.67C71.1187 152.589 71.1848 152.523 71.2657 152.523C71.3465 152.523 71.4127 152.589 71.4127 152.67ZM119.048 153.993C119.048 154.155 119.189 154.287 119.36 154.287C119.531 154.287 119.59 154.155 119.49 153.993C119.39 153.831 119.25 153.699 119.178 153.699C119.107 153.699 119.048 153.831 119.048 153.993ZM70.0916 154.578C69.9886 154.744 70.1065 154.794 70.3682 154.693C70.8775 154.498 70.9708 154.287 70.5479 154.287C70.3956 154.287 70.1904 154.418 70.0916 154.578ZM72.2948 154.728C72.2948 154.809 72.2287 154.875 72.1478 154.875C72.067 154.875 72.0008 154.809 72.0008 154.728C72.0008 154.647 72.067 154.581 72.1478 154.581C72.2287 154.581 72.2948 154.647 72.2948 154.728ZM121.107 155.61C121.308 155.853 121.605 156.051 121.767 156.051C121.931 156.051 121.899 155.856 121.695 155.61C121.493 155.368 121.196 155.169 121.035 155.169C120.871 155.169 120.903 155.364 121.107 155.61ZM122.577 156.345C122.577 156.507 122.717 156.639 122.888 156.639C123.06 156.639 123.118 156.507 123.018 156.345C122.918 156.184 122.778 156.051 122.707 156.051C122.635 156.051 122.577 156.184 122.577 156.345ZM71.1187 156.786C71.1187 156.867 71.1848 156.934 71.2657 156.934C71.3465 156.934 71.4127 156.867 71.4127 156.786C71.4127 156.706 71.3465 156.639 71.2657 156.639C71.1848 156.639 71.1187 156.706 71.1187 156.786ZM123.503 156.919C123.568 157.113 123.717 157.262 123.834 157.25C124.186 157.213 124.118 156.81 123.739 156.684C123.544 156.619 123.439 156.725 123.503 156.919ZM73.7651 157.651C73.7651 157.723 73.6122 157.875 73.4255 157.991C73.2152 158.121 73.1658 158.071 73.2961 157.861C73.5054 157.522 73.7651 157.406 73.7651 157.651ZM70.0404 158.306C70.1483 158.413 70.3247 158.413 70.4326 158.306C70.5403 158.198 70.452 158.11 70.2365 158.11C70.021 158.11 69.9328 158.198 70.0404 158.306ZM165.909 159.727C166.001 159.97 165.949 160.168 165.793 160.168C165.636 160.168 165.508 159.97 165.508 159.727C165.508 159.484 165.56 159.286 165.624 159.286C165.687 159.286 165.815 159.484 165.909 159.727ZM73.324 159.874C73.224 160.036 73.01 160.168 72.8483 160.168C72.6865 160.168 72.6359 160.036 72.7359 159.874C72.8359 159.712 73.05 159.58 73.2117 159.58C73.3734 159.58 73.424 159.712 73.324 159.874ZM128.752 160.756C128.752 160.918 128.884 161.05 129.046 161.05C129.208 161.05 129.34 160.918 129.34 160.756C129.34 160.594 129.208 160.462 129.046 160.462C128.884 160.462 128.752 160.594 128.752 160.756ZM75.2353 160.903C75.2353 160.984 75.1692 161.05 75.0883 161.05C75.0074 161.05 74.9413 160.984 74.9413 160.903C74.9413 160.822 75.0074 160.756 75.0883 160.756C75.1692 160.756 75.2353 160.822 75.2353 160.903ZM70.0895 162.226C70.1895 162.388 70.3374 162.52 70.4182 162.52C70.4991 162.52 70.4835 162.388 70.3835 162.226C70.2836 162.065 70.1357 161.932 70.0548 161.932C69.9739 161.932 69.9895 162.065 70.0895 162.226ZM165.802 162.079C165.802 162.16 165.736 162.226 165.655 162.226C165.574 162.226 165.508 162.16 165.508 162.079C165.508 161.998 165.574 161.932 165.655 161.932C165.736 161.932 165.802 161.998 165.802 162.079ZM75.5794 162.741C75.4338 163.024 75.3741 163.421 75.4464 163.623C75.6629 164.226 75.2821 164.039 74.9213 163.365C74.6602 162.877 74.674 162.684 74.9845 162.487C75.6223 162.083 75.8646 162.186 75.5794 162.741ZM165.802 162.667C165.802 162.748 165.736 162.814 165.655 162.814C165.574 162.814 165.508 162.748 165.508 162.667C165.508 162.587 165.574 162.52 165.655 162.52C165.736 162.52 165.802 162.587 165.802 162.667ZM166.096 163.55C166.096 163.63 166.03 163.697 165.949 163.697C165.868 163.697 165.802 163.63 165.802 163.55C165.802 163.469 165.868 163.403 165.949 163.403C166.03 163.403 166.096 163.469 166.096 163.55ZM72.8829 164.726C72.8829 164.807 72.9491 164.873 73.03 164.873C73.1108 164.873 73.177 164.807 73.177 164.726C73.177 164.645 73.1108 164.579 73.03 164.579C72.9491 164.579 72.8829 164.645 72.8829 164.726ZM88.4675 165.755C88.4675 165.917 88.261 166.049 88.009 166.049C87.757 166.049 87.6324 165.917 87.7324 165.755C87.8323 165.593 88.0385 165.461 88.1908 165.461C88.3431 165.461 88.4675 165.593 88.4675 165.755ZM76.7056 167.078C76.7056 167.159 76.7717 167.225 76.8526 167.225C76.9334 167.225 76.9996 167.159 76.9996 167.078C76.9996 166.997 76.9334 166.931 76.8526 166.931C76.7717 166.931 76.7056 166.997 76.7056 167.078ZM75.8234 167.372C75.8234 167.453 75.8896 167.519 75.9704 167.519C76.0513 167.519 76.1175 167.453 76.1175 167.372C76.1175 167.291 76.0513 167.225 75.9704 167.225C75.8896 167.225 75.8234 167.291 75.8234 167.372ZM84.5469 167.715C84.439 167.823 84.3508 167.735 84.3508 167.519C84.3508 167.304 84.439 167.215 84.5469 167.323C84.6546 167.431 84.6546 167.607 84.5469 167.715ZM89.9377 167.684C89.9377 167.936 90.07 168.06 90.2318 167.96C90.3935 167.86 90.5258 167.654 90.5258 167.502C90.5258 167.35 90.3935 167.225 90.2318 167.225C90.07 167.225 89.9377 167.432 89.9377 167.684ZM100.523 167.813C100.523 168.029 100.612 168.117 100.72 168.009C100.827 167.901 100.827 167.725 100.72 167.617C100.612 167.51 100.523 167.598 100.523 167.813ZM76.4115 167.929C76.4115 167.992 76.61 168.121 76.8526 168.214C77.0952 168.307 77.2937 168.255 77.2937 168.098C77.2937 167.941 77.0952 167.813 76.8526 167.813C76.61 167.813 76.4115 167.865 76.4115 167.929ZM87.0952 168.254C87.0952 168.466 87.2716 168.572 87.4874 168.489C87.7029 168.406 87.8794 168.301 87.8794 168.254C87.8794 168.208 87.7029 168.103 87.4874 168.02C87.2716 167.937 87.0952 168.043 87.0952 168.254ZM81.8023 168.598C81.9102 168.705 82.0866 168.705 82.1945 168.598C82.3022 168.49 82.214 168.401 81.9984 168.401C81.7829 168.401 81.6947 168.49 81.8023 168.598ZM82.5865 168.842C82.5865 169.112 82.7288 169.285 82.9026 169.227C83.0764 169.169 83.2187 168.996 83.2187 168.842C83.2187 168.689 83.0764 168.516 82.9026 168.458C82.7288 168.4 82.5865 168.573 82.5865 168.842ZM84.6449 168.678C84.6449 168.83 84.7772 169.037 84.9389 169.136C85.1006 169.236 85.2329 169.112 85.2329 168.86C85.2329 168.608 85.1006 168.401 84.9389 168.401C84.7772 168.401 84.6449 168.526 84.6449 168.678ZM77.5877 168.842C77.5877 168.923 77.6539 168.989 77.7347 168.989C77.8156 168.989 77.8818 168.923 77.8818 168.842C77.8818 168.762 77.8156 168.695 77.7347 168.695C77.6539 168.695 77.5877 168.762 77.5877 168.842ZM79.352 169.284C78.975 169.527 78.9856 169.569 79.4255 169.573C79.7084 169.576 79.9401 169.445 79.9401 169.284C79.9401 168.925 79.9069 168.925 79.352 169.284ZM104.64 169.578C104.64 169.739 104.78 169.872 104.952 169.872C105.123 169.872 105.181 169.739 105.081 169.578C104.981 169.416 104.841 169.284 104.77 169.284C104.698 169.284 104.64 169.416 104.64 169.578ZM106.11 169.725C106.11 169.805 106.177 169.872 106.257 169.872C106.338 169.872 106.404 169.805 106.404 169.725C106.404 169.644 106.338 169.578 106.257 169.578C106.177 169.578 106.11 169.644 106.11 169.725ZM165.802 173.253C165.802 173.334 165.736 173.4 165.655 173.4C165.574 173.4 165.508 173.334 165.508 173.253C165.508 173.172 165.574 173.106 165.655 173.106C165.736 173.106 165.802 173.172 165.802 173.253ZM118.656 176.537C118.549 176.644 118.372 176.644 118.264 176.537C118.157 176.429 118.245 176.341 118.46 176.341C118.676 176.341 118.764 176.429 118.656 176.537ZM172.859 177.664C172.859 177.745 172.925 177.811 173.006 177.811C173.087 177.811 173.153 177.745 173.153 177.664C173.153 177.583 173.087 177.517 173.006 177.517C172.925 177.517 172.859 177.583 172.859 177.664ZM173.447 180.016C173.447 180.097 173.514 180.163 173.594 180.163C173.675 180.163 173.741 180.097 173.741 180.016C173.741 179.935 173.675 179.869 173.594 179.869C173.514 179.869 173.447 179.935 173.447 180.016ZM125.223 181.487C125.223 181.567 125.29 181.634 125.37 181.634C125.451 181.634 125.518 181.567 125.518 181.487C125.518 181.406 125.451 181.339 125.37 181.339C125.29 181.339 125.223 181.406 125.223 181.487ZM126.106 182.075C126.106 182.155 126.172 182.222 126.253 182.222C126.333 182.222 126.4 182.155 126.4 182.075C126.4 181.994 126.333 181.928 126.253 181.928C126.172 181.928 126.106 181.994 126.106 182.075ZM129.046 184.133C129.046 184.214 129.112 184.28 129.193 184.28C129.274 184.28 129.34 184.214 129.34 184.133C129.34 184.052 129.274 183.986 129.193 183.986C129.112 183.986 129.046 184.052 129.046 184.133ZM132.869 184.721C132.869 184.802 132.803 184.868 132.722 184.868C132.641 184.868 132.575 184.802 132.575 184.721C132.575 184.64 132.641 184.574 132.722 184.574C132.803 184.574 132.869 184.64 132.869 184.721ZM134.633 186.485C134.633 186.566 134.567 186.632 134.486 186.632C134.405 186.632 134.339 186.566 134.339 186.485C134.339 186.404 134.405 186.338 134.486 186.338C134.567 186.338 134.633 186.404 134.633 186.485ZM137.279 190.308C137.279 190.389 137.346 190.455 137.426 190.455C137.507 190.455 137.573 190.389 137.573 190.308C137.573 190.227 137.507 190.161 137.426 190.161C137.346 190.161 137.279 190.227 137.279 190.308ZM140.22 190.308C140.22 190.389 140.154 190.455 140.073 190.455C139.992 190.455 139.926 190.389 139.926 190.308C139.926 190.227 139.992 190.161 140.073 190.161C140.154 190.161 140.22 190.227 140.22 190.308ZM142.572 194.425C142.572 194.505 142.638 194.572 142.719 194.572C142.8 194.572 142.866 194.505 142.866 194.425C142.866 194.344 142.8 194.278 142.719 194.278C142.638 194.278 142.572 194.344 142.572 194.425Z" fill="#FFE04A"/>
</svg>
