<svg width="220" height="213" viewBox="0 0 220 213" fill="none" xmlns="http://www.w3.org/2000/svg">
<path fill-rule="evenodd" clip-rule="evenodd" d="M96.0484 78.4522C95.4538 78.8322 93.9682 79.6409 92.7471 80.2491C91.5261 80.8574 90.3882 81.4825 90.2186 81.6383C89.8149 82.0087 85.5264 83.6237 85.0013 83.6031C84.5338 83.5847 83.3723 84.0471 83.4094 84.2365C83.4231 84.3066 82.9662 84.3696 82.3946 84.3763C80.5406 84.3982 79.4433 84.5278 79.2439 84.7484C79.1364 84.8672 78.57 84.9457 77.9853 84.9227C77.4006 84.8997 76.9397 84.9646 76.9611 85.0668C76.9826 85.1691 75.8071 85.2193 74.3486 85.1782C72.8902 85.1373 71.3224 85.1582 70.8643 85.2247C70.4062 85.2911 69.9173 85.3275 69.7778 85.3053C69.6383 85.2832 68.795 85.2079 67.9038 85.138C67.0125 85.0679 65.8696 84.8794 65.364 84.7192C64.8584 84.559 63.4737 84.2696 62.2869 84.0764C58.4844 83.4576 56.5549 82.8613 51.198 80.6499C48.8422 79.6774 48.2135 79.5358 47.2247 79.7547C46.5267 79.9093 46.4058 81.1537 46.9891 82.1771C47.5614 83.1804 48.8534 84.4618 49.3116 84.4798C49.5153 84.4878 50.1086 84.793 50.63 85.1583C51.1514 85.5236 52.1805 86.152 52.9167 86.5549C53.6531 86.9576 54.599 87.6098 55.0187 88.0037C55.4385 88.3978 56.2592 89.0985 56.8425 89.5606C60.0564 92.1071 61.3071 93.1095 62.0751 93.7552C63.0464 94.5719 64.7809 96.3239 64.6389 96.345C64.3612 96.3863 65.2626 97.6052 65.9553 98.1249C66.397 98.4562 66.8794 98.9501 67.0277 99.2224C67.1758 99.4948 67.5456 99.9433 67.8499 100.219C68.1605 100.501 68.6992 101.479 69.0785 102.449C69.4502 103.4 69.9729 104.37 70.2402 104.606C70.5075 104.841 70.7957 105.293 70.881 105.61C70.966 105.927 71.3294 106.915 71.6885 107.807C72.5029 109.828 73.3758 114.316 73.1999 115.575C73.1272 116.095 73.0736 117.168 73.081 117.96C73.088 118.752 72.9738 119.869 72.8267 120.442C72.68 121.016 72.6077 121.89 72.6666 122.385C72.7255 122.88 72.6705 123.347 72.5446 123.424C72.1838 123.643 71.3592 126.105 71.2941 127.157C71.2615 127.682 71.0266 128.392 70.772 128.735C70.5172 129.078 70.3407 129.511 70.3797 129.697C70.4807 130.179 69.5941 132.725 69.1846 133.129C68.6631 133.643 68.3951 134.443 68.6461 134.737C68.7817 134.896 68.7441 134.931 68.5501 134.824C68.3499 134.715 68.2655 134.817 68.3243 135.098C68.376 135.345 68.268 135.598 68.0846 135.661C67.7428 135.778 66.9321 137.814 67.0339 138.299C67.0649 138.447 66.7384 139.028 66.308 139.589C65.217 141.012 65.1779 141.08 64.9663 141.947C64.8627 142.372 64.6492 142.797 64.4923 142.892C64.3351 142.987 63.9832 143.549 63.7097 144.141C63.4364 144.734 63.0251 145.499 62.796 145.843C61.9964 147.042 61.1444 148.803 61.2109 149.121C61.2478 149.296 61.0825 149.561 60.8436 149.708C60.6048 149.855 60.4423 150.133 60.4827 150.325C60.523 150.518 60.3433 150.768 60.0836 150.881C59.8237 150.995 59.4928 151.391 59.3486 151.761C59.2041 152.131 59.0263 152.483 58.9532 152.543C58.7392 152.719 58.134 154.327 58.187 154.58C58.2137 154.707 57.8568 155.242 57.3941 155.768C56.4293 156.866 56.0617 157.381 56.1163 157.561C56.1371 157.63 55.8881 158.007 55.5626 158.398C55.2369 158.789 54.9941 159.224 55.023 159.365C55.0517 159.505 54.8356 159.804 54.5428 160.029C54.023 160.43 52.7573 162.598 52.8329 162.959C52.8539 163.059 52.4591 163.562 51.9558 164.077C51.4274 164.617 51.039 165.298 51.0368 165.687C51.0346 166.058 50.9356 166.358 50.8164 166.353C50.6972 166.348 50.2404 166.757 49.8012 167.262C49.25 167.895 49.106 168.237 49.3362 168.363C49.7207 168.573 49.3883 169.065 48.7057 169.295C48.4851 169.37 48.3502 169.647 48.4056 169.911C48.461 170.175 48.3817 170.323 48.2293 170.239C48.077 170.156 47.9807 170.223 48.0151 170.389C48.0498 170.554 47.7144 171.076 47.2701 171.548C46.8258 172.021 46.5158 172.503 46.5815 172.621C46.6473 172.738 46.2566 173.358 45.7133 174C44.5421 175.384 42.6155 178.355 42.1771 179.455C42.0058 179.884 41.6554 180.416 41.3981 180.637C41.1408 180.858 40.9567 181.163 40.9886 181.316C41.0206 181.468 40.8863 181.748 40.6901 181.938C40.1557 182.457 39.6701 183.213 39.7197 183.45C39.7439 183.565 39.4036 184.047 38.9636 184.522C38.5235 184.996 38.187 185.496 38.2157 185.633C38.2444 185.769 38.0075 186.11 37.6893 186.388C37.3708 186.667 36.9762 187.284 36.8121 187.76C36.6481 188.236 36.2506 188.949 35.9291 189.345C35.2419 190.191 34.7024 190.985 33.9049 192.323C33.5856 192.858 33.1503 193.517 32.9373 193.788C32.7243 194.059 32.4131 194.66 32.2456 195.124C32.0784 195.588 31.6468 196.228 31.2868 196.546C30.9268 196.863 30.4933 197.528 30.3239 198.023C30.1542 198.517 29.7792 199.162 29.4901 199.454C29.2014 199.747 28.9943 200.126 29.0303 200.298C29.0662 200.469 28.9362 200.664 28.7415 200.731C28.088 200.955 27.0452 203.306 27.2668 204.056C27.3792 204.436 27.5142 204.909 27.5666 205.107C27.7543 205.815 28.837 206.51 29.8118 206.549C30.5402 206.577 30.8799 206.427 31.3739 205.858C31.7212 205.459 31.9834 205.028 31.9568 204.901C31.9301 204.773 32.2336 204.329 32.6311 203.912C33.0288 203.496 33.6015 202.704 33.904 202.152C34.2066 201.599 34.5556 201.049 34.6797 200.929C34.8038 200.808 35.2458 200.159 35.6618 199.486C36.0778 198.813 36.6 198.043 36.8221 197.775C37.0444 197.507 37.2136 197.227 37.1982 197.153C37.1623 196.982 37.4652 196.547 38.3317 195.526C38.7115 195.078 39.2219 194.362 39.4655 193.935C39.9533 193.08 40.3484 192.485 40.7239 192.041C40.8591 191.881 40.9497 191.657 40.9256 191.541C40.9015 191.426 41.1789 191.038 41.5418 190.679C42.5545 189.677 44.6413 187.043 44.5954 186.824C44.5729 186.717 44.8547 186.482 45.2215 186.302C45.5883 186.122 45.8594 185.836 45.824 185.667C45.7885 185.498 46.1449 185.09 46.6158 184.761C47.0869 184.431 47.6358 183.798 47.8355 183.353C48.2018 182.538 50.2739 180.233 50.6282 180.247C50.7332 180.251 50.7868 180.1 50.747 179.91C50.7073 179.72 50.786 179.57 50.922 179.575C51.058 179.58 51.1437 179.463 51.1124 179.314C51.0313 178.927 52.3827 177.654 53.0105 177.526C53.3016 177.466 53.6737 177.111 53.8374 176.736C54.0011 176.362 54.2978 176.061 54.4971 176.069C54.6964 176.077 54.9286 175.841 55.0134 175.545C55.0981 175.248 55.4055 174.884 55.6965 174.735C55.9878 174.587 56.1962 174.323 56.16 174.151C56.0343 173.551 56.6405 172.772 57.475 172.46C57.9366 172.287 58.5818 171.893 58.9093 171.585C59.2364 171.277 59.5701 171.026 59.6507 171.028C59.7311 171.031 59.9873 170.68 60.2198 170.248C60.4522 169.817 60.7008 169.511 60.7722 169.569C60.8435 169.627 61.0596 169.509 61.2523 169.308C62.7001 167.796 63.4793 167.122 63.6347 167.248C63.7343 167.329 63.7919 167.28 63.7624 167.139C63.657 166.637 65.0507 165.415 65.5742 165.55C65.6095 165.559 66.2202 165.077 66.9311 164.479C67.642 163.88 68.3285 163.395 68.4566 163.4C68.5847 163.405 68.9434 163.111 69.2536 162.747C69.564 162.384 69.9778 162.092 70.1731 162.1C70.3685 162.108 70.6161 161.846 70.7232 161.518C70.8603 161.099 71.4224 160.72 72.6145 160.241C73.5474 159.866 74.3125 159.399 74.3149 159.202C74.3173 159.005 74.5344 158.853 74.7972 158.863C75.06 158.873 75.4602 158.636 75.6864 158.336C75.9128 158.036 76.1846 157.838 76.291 157.896C76.3974 157.954 76.6588 157.833 76.8719 157.626C77.0849 157.42 77.661 157.061 78.1519 156.83C78.6428 156.599 79.0653 156.333 79.0907 156.24C79.1163 156.147 79.3332 156.079 79.573 156.088C79.8128 156.098 80.2224 155.909 80.4829 155.668C80.7434 155.428 81.0216 155.226 81.1006 155.219C81.7845 155.163 82.1434 155.025 82.6224 154.634C82.9286 154.383 83.3325 154.185 83.5199 154.192C83.7076 154.2 84.0348 154.12 84.2471 154.016C84.4594 153.912 85.0961 153.667 85.662 153.472C86.8189 153.072 88.1534 152.543 89.5668 151.922C90.0915 151.692 90.7622 151.513 91.0569 151.525C91.3517 151.537 92.0349 151.374 92.575 151.164C93.1152 150.953 93.9844 150.713 94.5065 150.631C95.0286 150.548 95.5086 150.469 95.5733 150.456C96.9977 150.163 101.272 150.191 103.167 150.507C104.497 150.728 108.116 152.166 109.364 152.968C110.779 153.878 112.175 155.03 113.064 156.022C113.52 156.531 114.063 157.009 114.27 157.085C114.477 157.162 114.68 157.387 114.722 157.585C114.764 157.784 115.078 158.235 115.421 158.588C116.121 159.308 118.33 163.112 119.381 165.404C120.613 168.094 122.821 175.163 123.623 178.989C124.008 180.829 124.159 183.369 124.01 185.523C123.941 186.523 123.943 186.548 124.577 192.217C124.82 194.392 125.102 196.506 125.203 196.914C125.305 197.322 125.837 199.898 126.387 202.639C127.388 207.629 127.715 208.572 128.461 208.601C128.643 208.609 128.883 208.486 128.994 208.329C129.184 208.062 128.701 202.6 128.263 200.048C128.155 199.417 128.027 198.232 127.978 197.416C127.84 195.078 126.918 187.783 126.3 184.132C125.991 182.302 125.768 180.419 125.805 179.947C126.373 172.742 128.823 166.038 132.352 162.033C133.701 160.502 135.741 158.615 136.68 158.029C139.531 156.251 143.55 154.551 145.875 154.141C146.591 154.014 147.594 153.798 148.104 153.659C148.614 153.521 150.395 153.331 152.061 153.237C155.821 153.025 167.748 153.664 169.979 154.197C171.288 154.509 171.503 154.51 171.783 154.2C172.318 153.609 171.745 152.933 170.512 152.7C166.462 151.934 161.33 149.503 151.536 143.713C145.461 140.121 137.709 134.169 134.54 130.663C129.292 124.854 126.141 118.764 125.28 112.761C124.689 108.644 124.681 104.488 125.258 101.867C125.589 100.362 125.374 99.5467 124.638 99.5178C124.072 99.4956 123.703 100.023 123.395 101.292C123.1 102.51 121.91 104.92 121.084 105.971C120.757 106.388 120.501 106.788 120.515 106.86C120.53 106.933 120.002 107.441 119.342 107.991C117.013 109.934 114.206 110.677 111.936 109.954C110.909 109.627 108.296 108.139 107.888 107.649C107.766 107.503 107.251 107.011 106.743 106.556C106.236 106.101 105.793 105.607 105.76 105.458C105.726 105.309 105.531 105.045 105.325 104.871C104.589 104.249 101.872 99.6486 101.01 97.5639C100.799 97.0543 100.56 96.4808 100.478 96.2896C99.6403 94.3296 98.6335 90.4277 98.5445 88.7952C98.4892 87.7839 98.3047 86.2897 98.1338 85.4746C97.9632 84.6598 97.7069 82.6183 97.5643 80.9379C97.4217 79.2577 97.2655 77.8555 97.2173 77.8219C97.1691 77.7886 96.643 78.0721 96.0484 78.4522Z" fill="#FD73C5"/>
<path fill-rule="evenodd" clip-rule="evenodd" d="M180.52 74.5058C178.102 75.8695 175.113 78.1861 172.496 80.7247C169.77 83.3679 169.508 83.5296 168.744 83.0471C168.292 82.7619 167.318 82.4127 166.579 82.2709C165.84 82.1291 164.631 81.7339 163.892 81.3932C162.462 80.7339 158.727 80.0658 156.746 80.1153C156.088 80.1314 155.064 80.3966 154.47 80.7048C153.876 81.0125 153.236 81.1693 153.048 81.0536C152.86 80.9378 152.613 81.2034 152.497 81.6438C152.382 82.0842 152.156 82.3637 151.995 82.2644C151.523 81.9731 150.676 85.5465 150.724 87.6278C150.749 88.6819 150.891 90.2342 151.041 91.0774C151.19 91.9207 151.395 93.4297 151.497 94.4309C151.598 95.4324 151.812 96.1707 151.972 96.0718C152.133 95.9729 152.182 96.3178 152.082 96.8384C151.97 97.4279 152.078 97.7851 152.371 97.7851C152.629 97.7851 152.746 98.0312 152.63 98.332C152.515 98.6329 152.667 99.0837 152.969 99.3336C153.271 99.5839 153.411 99.9606 153.281 100.171C153.15 100.382 153.246 100.678 153.492 100.83C154.193 101.263 153.413 102.856 151.08 105.755C148.717 108.692 147 111.871 147 113.309C147 115.593 149.52 117.503 152.967 117.834C154.014 117.934 157.116 117.749 159.861 117.422C166.405 116.643 167.295 116.824 169.153 119.311C173.217 124.751 178.297 128.222 181.854 127.989L183.616 127.874L184.345 125.765C185.09 123.611 185.188 122.908 185.623 116.566C185.822 113.663 186.032 112.75 186.658 112.063C187.09 111.589 187.639 111.2 187.877 111.2C188.868 111.2 192.642 109.012 194.682 107.254C198.661 103.825 200.6 99.9262 199.836 96.8889C199.58 95.8694 196.298 93.9521 194.809 93.9521C194.372 93.9521 193.412 93.5551 192.677 93.0698C191.581 92.3458 188.932 91.3488 186.254 90.6516C185.892 90.5573 185.784 88.9448 185.814 84.0942C185.845 78.9773 185.728 77.3713 185.238 76.2386C184.321 74.1144 182.439 73.423 180.52 74.5058Z" fill="#16E912"/>
<path fill-rule="evenodd" clip-rule="evenodd" d="M200.394 0.29035C201.808 1.07325 203.556 2.40316 205.087 3.86047C206.682 5.37786 206.835 5.47072 207.282 5.19369C207.546 5.02998 208.116 4.82952 208.548 4.74811C208.98 4.66669 209.688 4.43984 210.12 4.24422C210.956 3.86576 213.141 3.48223 214.3 3.51062C214.684 3.51986 215.283 3.67212 215.631 3.84903C215.978 4.02572 216.353 4.11572 216.462 4.04927C216.572 3.98282 216.717 4.1353 216.785 4.38813C216.852 4.64095 216.984 4.80136 217.078 4.74437C217.355 4.57714 217.85 6.62856 217.822 7.82337C217.807 8.42848 217.724 9.31964 217.637 9.80372C217.549 10.2878 217.429 11.1541 217.37 11.7288C217.311 12.3038 217.185 12.7276 217.092 12.6708C216.998 12.6141 216.969 12.8121 217.027 13.1109C217.093 13.4493 217.03 13.6544 216.859 13.6544C216.707 13.6544 216.639 13.7957 216.707 13.9684C216.774 14.1411 216.685 14.3999 216.509 14.5434C216.332 14.687 216.25 14.9033 216.326 15.0241C216.403 15.1449 216.347 15.3153 216.203 15.4026C215.793 15.651 216.249 16.5653 217.613 18.2297C218.996 19.9158 220 21.7406 220 22.5664C220 23.8772 218.526 24.9741 216.51 25.164C215.898 25.2216 214.083 25.1151 212.478 24.9274C208.65 24.4801 208.129 24.5839 207.042 26.012C204.666 29.1348 201.694 31.1272 199.613 30.9937L198.583 30.9274L198.157 29.7172C197.721 28.4804 197.664 28.0766 197.409 24.4363C197.293 22.7695 197.17 22.2456 196.804 21.8508C196.551 21.5787 196.23 21.3558 196.091 21.3558C195.511 21.3558 193.304 20.0993 192.111 19.09C189.783 17.1218 188.649 14.8835 189.096 13.1399C189.246 12.5546 191.165 11.454 192.036 11.454C192.292 11.454 192.853 11.2261 193.283 10.9475C193.925 10.5318 195.474 9.9595 197.04 9.55925C197.252 9.50512 197.315 8.57943 197.298 5.79484C197.279 2.85732 197.348 1.93536 197.634 1.28514C198.171 0.0656892 199.272 -0.33126 200.394 0.29035Z" fill="#16E912"/>
<path fill-rule="evenodd" clip-rule="evenodd" d="M174.432 86.3524C174.257 86.5683 174.018 86.6848 173.902 86.6114C173.786 86.5384 173.128 86.984 172.441 87.6023C171.753 88.2206 171.054 88.7266 170.888 88.7266C170.721 88.7266 170.584 88.8536 170.584 89.0088C170.584 89.164 170.696 89.291 170.831 89.291C170.967 89.291 171.152 89.488 171.242 89.729C171.333 89.97 171.297 90.0975 171.163 90.0129C170.897 89.8447 170.454 90.6701 170.566 91.1253C170.604 91.2805 170.67 91.979 170.712 92.6775C170.754 93.3759 170.857 94.2014 170.941 94.5118C171.026 94.8222 171.104 95.3059 171.116 95.5867C171.128 95.8675 171.248 96.027 171.384 95.9412C171.52 95.8551 171.703 95.9747 171.79 96.2067C171.877 96.4387 171.848 96.6283 171.725 96.6283C171.602 96.6283 171.36 96.9458 171.187 97.3338C171.014 97.7219 170.683 98.0394 170.452 98.0394C170.221 98.0394 170.032 98.2298 170.032 98.4627C170.032 99.0152 169.782 98.9974 169.135 98.3995C168.845 98.1319 168.215 97.7826 167.735 97.6234C167.245 97.4608 166.819 97.1024 166.763 96.8067C166.702 96.4822 166.779 96.3521 166.964 96.4686C167.274 96.6642 167.098 95.9062 166.706 95.3584C166.595 95.2032 166.521 94.2824 166.541 93.3121C166.562 92.3422 166.498 91.5484 166.399 91.5484C166.3 91.5486 165.99 90.9763 165.709 90.277C165.428 89.5774 164.98 88.934 164.714 88.8468C164.448 88.7599 164.227 88.5383 164.223 88.3549C164.218 88.1712 164.094 88.2316 163.947 88.4887C163.783 88.7765 163.468 88.8999 163.13 88.8093C162.827 88.7286 162.639 88.5643 162.712 88.4444C162.928 88.0868 162.201 87.6607 161.607 87.7959C161.303 87.865 160.774 87.9135 160.433 87.904C160.059 87.8932 159.811 88.0535 159.811 88.3064C159.811 88.5375 159.629 88.7266 159.407 88.7266C158.874 88.7266 158.444 89.5873 158.162 91.2148C158.036 91.9415 157.734 93.2726 157.491 94.1729C156.818 96.663 156.902 98.3594 157.744 99.2875C158.126 99.7089 158.356 100.192 158.254 100.36C158.152 100.529 158.181 100.598 158.318 100.515C158.456 100.432 158.864 100.477 159.225 100.616C159.835 100.852 159.868 100.971 159.695 102.301C159.551 103.414 159.587 103.684 159.856 103.514C160.047 103.393 159.908 103.795 159.546 104.406C158.358 106.415 157.366 108.494 157.178 109.368C156.904 110.645 156.955 112.259 157.273 112.367C157.427 112.419 157.857 112.751 158.229 113.103C158.792 113.635 159.157 113.728 160.394 113.655C164.352 113.419 165.612 113.183 165.612 112.679C165.612 112.524 165.731 112.474 165.876 112.565C166.022 112.657 166.55 112.564 167.05 112.358C167.551 112.152 168.116 112.005 168.306 112.032C168.496 112.058 168.775 112.095 168.927 112.114C169.079 112.134 169.184 112.245 169.159 112.361C169.072 112.784 169.579 113.718 170.281 114.429C171.267 115.427 171.966 116.341 171.966 116.633C171.966 117.131 174.09 119.161 175.031 119.562C176.875 120.35 180.231 120.008 179.879 119.069C179.794 118.843 179.843 118.583 179.989 118.492C180.32 118.282 180.337 116.306 180.01 115.945C179.876 115.798 179.612 115.169 179.422 114.548C179.233 113.928 178.925 113.229 178.738 112.996C178.396 112.572 177.767 110.301 177.767 109.494C177.767 109.188 178.029 109.072 178.664 109.096C179.158 109.115 179.842 109.039 180.184 108.927C180.662 108.772 180.805 108.836 180.805 109.203C180.805 109.605 180.986 109.652 181.925 109.499C183.135 109.301 185.16 108.136 185.399 107.499C185.484 107.274 185.736 107.179 185.986 107.278C186.323 107.41 186.381 107.33 186.234 106.938C186.07 106.502 186.104 106.479 186.468 106.788C186.823 107.089 186.868 107.079 186.737 106.728C186.64 106.469 186.85 106.125 187.283 105.835C188.008 105.35 188.25 104.165 187.696 103.815C187.536 103.714 187.448 103.42 187.501 103.163C187.632 102.53 186.403 101.459 185.747 101.634C185.46 101.711 185.225 101.892 185.225 102.035C185.225 102.179 185.07 102.272 184.88 102.24C184.243 102.136 182.208 103.062 181.708 103.683C181.406 104.06 181.337 104.06 181.091 103.683C180.905 103.399 180.812 103.376 180.809 103.613C180.807 103.807 180.634 103.966 180.424 103.966C180.215 103.966 179.577 104.546 179.008 105.256C178.439 105.966 177.883 106.442 177.772 106.314C177.593 106.107 177.041 104.241 176.826 103.119C176.782 102.886 176.66 102.497 176.555 102.254C176.269 101.587 176.216 100.327 176.476 100.331C177.119 100.34 177.698 99.1052 177.618 97.8932C177.569 97.1496 177.653 96.6283 177.823 96.6283C178.001 96.6283 177.984 96.4723 177.777 96.2174C177.593 95.9914 177.518 95.6827 177.609 95.5314C177.701 95.3801 177.649 95.1767 177.495 95.079C176.994 94.7627 177.198 93.1795 177.895 91.9629C178.686 90.5841 179.137 88.7929 178.947 87.7789C178.711 86.52 175.198 85.4098 174.432 86.3524ZM172.354 86.7949C172.231 86.9967 172.278 87.0441 172.475 86.919C172.651 86.8084 172.794 86.662 172.794 86.5934C172.794 86.358 172.55 86.4695 172.354 86.7949ZM163.238 87.3593C163.116 87.5611 163.162 87.6085 163.359 87.4835C163.535 87.3728 163.679 87.2264 163.679 87.1578C163.679 86.9224 163.435 87.0339 163.238 87.3593ZM162.574 87.4566C162.574 87.5343 162.636 87.5978 162.712 87.5978C162.788 87.5978 162.85 87.5343 162.85 87.4566C162.85 87.379 162.788 87.3155 162.712 87.3155C162.636 87.3155 162.574 87.379 162.574 87.4566ZM186.33 101.849C186.33 101.927 186.268 101.99 186.192 101.99C186.116 101.99 186.054 101.927 186.054 101.849C186.054 101.772 186.116 101.708 186.192 101.708C186.268 101.708 186.33 101.772 186.33 101.849ZM178.181 108.481C178.275 108.636 178.29 108.763 178.214 108.763C178.138 108.763 177.999 108.636 177.905 108.481C177.811 108.326 177.796 108.199 177.872 108.199C177.948 108.199 178.087 108.326 178.181 108.481Z" fill="#FFE04A"/>
<path fill-rule="evenodd" clip-rule="evenodd" d="M203.316 6.20728C203.423 6.33427 203.57 6.40283 203.641 6.35967C203.712 6.31668 204.115 6.5788 204.536 6.94251C204.958 7.30622 205.386 7.60387 205.488 7.60387C205.591 7.60387 205.674 7.67857 205.674 7.76987C205.674 7.86117 205.606 7.93587 205.523 7.93587C205.44 7.93587 205.326 8.05174 205.271 8.19351C205.215 8.33528 205.237 8.41031 205.32 8.36051C205.483 8.26157 205.754 8.74713 205.685 9.0149C205.662 9.1062 205.622 9.51706 205.596 9.92791C205.57 10.3388 205.507 10.8243 205.455 11.0069C205.404 11.1895 205.356 11.4741 205.348 11.6392C205.341 11.8044 205.267 11.8982 205.184 11.8477C205.1 11.7971 204.989 11.8675 204.935 12.0039C204.882 12.1404 204.9 12.252 204.975 12.252C205.05 12.252 205.199 12.4387 205.305 12.667C205.411 12.8952 205.613 13.082 205.755 13.082C205.897 13.082 206.013 13.194 206.013 13.331C206.013 13.656 206.166 13.6456 206.563 13.2938C206.74 13.1364 207.126 12.9309 207.42 12.8373C207.721 12.7417 207.982 12.5308 208.016 12.3569C208.053 12.166 208.006 12.0894 207.893 12.158C207.703 12.273 207.811 11.8272 208.051 11.5049C208.119 11.4136 208.165 10.872 208.152 10.3013C208.139 9.73071 208.179 9.26374 208.239 9.26374C208.3 9.2639 208.49 8.92725 208.662 8.51589C208.835 8.10437 209.109 7.72588 209.272 7.67459C209.435 7.62346 209.57 7.49314 209.573 7.38524C209.576 7.27717 209.652 7.31269 209.742 7.46392C209.843 7.63325 210.036 7.7058 210.243 7.65251C210.429 7.60503 210.544 7.50842 210.499 7.43786C210.367 7.22754 210.812 6.97688 211.177 7.05639C211.363 7.09706 211.687 7.12562 211.896 7.11997C212.125 7.11366 212.277 7.20795 212.277 7.35669C212.277 7.49264 212.389 7.60387 212.525 7.60387C212.851 7.60387 213.115 8.11018 213.288 9.06752C213.365 9.49498 213.55 10.278 213.699 10.8076C214.112 12.2724 214.06 13.2702 213.544 13.8162C213.31 14.064 213.169 14.3481 213.232 14.4472C213.294 14.5463 213.276 14.5871 213.192 14.5382C213.108 14.4892 212.858 14.5161 212.636 14.5979C212.262 14.7364 212.242 14.8064 212.348 15.589C212.436 16.2435 212.414 16.4024 212.249 16.3023C212.132 16.2312 212.218 16.4676 212.439 16.8272C213.168 18.0089 213.776 19.2316 213.891 19.7457C214.059 20.4972 214.028 21.4462 213.833 21.5101C213.738 21.5408 213.475 21.7357 213.246 21.9429C212.902 22.256 212.678 22.3108 211.92 22.2674C209.494 22.1288 208.722 21.9902 208.722 21.6932C208.722 21.6026 208.649 21.5727 208.56 21.6267C208.471 21.6806 208.147 21.6257 207.84 21.5046C207.533 21.3836 207.187 21.2973 207.071 21.3127C206.954 21.328 206.783 21.3499 206.69 21.3614C206.597 21.3728 206.533 21.4381 206.547 21.5066C206.601 21.7552 206.29 22.3046 205.86 22.7228C205.256 23.3098 204.827 23.8478 204.827 24.0196C204.827 24.3121 203.525 25.5063 202.949 25.7426C201.818 26.2057 199.761 26.0047 199.978 25.4522C200.03 25.3194 199.999 25.1667 199.91 25.1127C199.707 24.9896 199.697 23.827 199.897 23.6149C199.979 23.5282 200.141 23.1584 200.257 22.7932C200.373 22.428 200.562 22.0171 200.677 21.8802C200.886 21.6305 201.272 20.2947 201.272 19.8197C201.272 19.6403 201.111 19.572 200.722 19.586C200.419 19.5969 200 19.5523 199.791 19.4867C199.498 19.3952 199.41 19.4328 199.41 19.6491C199.41 19.8851 199.299 19.9132 198.724 19.823C197.982 19.7067 196.741 19.0209 196.594 18.6464C196.542 18.5143 196.388 18.4585 196.234 18.5164C196.028 18.5939 195.992 18.547 196.083 18.3164C196.183 18.0597 196.162 18.0466 195.939 18.2281C195.721 18.4052 195.694 18.3994 195.774 18.1931C195.834 18.0408 195.705 17.8381 195.439 17.6678C194.995 17.3823 194.847 16.6852 195.186 16.4794C195.285 16.4198 195.338 16.2473 195.306 16.0961C195.226 15.7237 195.979 15.0936 196.381 15.1967C196.557 15.2418 196.701 15.3481 196.701 15.4326C196.701 15.5172 196.796 15.5715 196.912 15.5531C197.302 15.4915 198.55 16.0363 198.856 16.402C199.041 16.6233 199.084 16.6233 199.235 16.402C199.349 16.2349 199.405 16.2213 199.407 16.3605C199.408 16.4748 199.515 16.568 199.643 16.568C199.772 16.568 200.162 16.9097 200.511 17.3272C200.86 17.7447 201.201 18.0249 201.268 17.9497C201.378 17.8278 201.717 16.7297 201.849 16.07C201.876 15.9331 201.95 15.704 202.015 15.5609C202.19 15.1686 202.222 14.4278 202.063 14.4299C201.669 14.4352 201.314 13.709 201.363 12.996C201.393 12.5586 201.341 12.252 201.238 12.252C201.128 12.252 201.139 12.1602 201.266 12.0103C201.378 11.8773 201.425 11.6957 201.369 11.6067C201.312 11.5177 201.344 11.398 201.439 11.3406C201.746 11.1545 201.621 10.2232 201.193 9.5076C200.708 8.6965 200.432 7.64288 200.549 7.04643C200.693 6.30589 202.847 5.65283 203.316 6.20728ZM204.59 6.46758C204.665 6.58627 204.636 6.61415 204.515 6.54061C204.408 6.47554 204.32 6.38938 204.32 6.34904C204.32 6.2106 204.469 6.27618 204.59 6.46758ZM210.177 6.79959C210.252 6.91828 210.223 6.94616 210.102 6.87262C209.995 6.80754 209.907 6.72139 209.907 6.68105C209.907 6.5426 210.056 6.60818 210.177 6.79959ZM210.584 6.85685C210.584 6.9025 210.546 6.93985 210.499 6.93985C210.453 6.93985 210.415 6.9025 210.415 6.85685C210.415 6.8112 210.453 6.77385 210.499 6.77385C210.546 6.77385 210.584 6.8112 210.584 6.85685ZM196.024 15.323C196.024 15.3687 196.062 15.406 196.108 15.406C196.155 15.406 196.193 15.3687 196.193 15.323C196.193 15.2774 196.155 15.24 196.108 15.24C196.062 15.24 196.024 15.2774 196.024 15.323ZM201.018 19.2241C200.961 19.3154 200.952 19.3901 200.998 19.3901C201.045 19.3901 201.13 19.3154 201.187 19.2241C201.245 19.1328 201.254 19.0581 201.207 19.0581C201.161 19.0581 201.076 19.1328 201.018 19.2241Z" fill="#FFE04A"/>
<path d="M174.613 47.5221C174.347 48.1289 174.21 48.6934 174.309 48.777C174.409 48.8608 174.128 49.3599 173.685 49.8861C173.075 50.612 172.481 50.9396 171.226 51.243C168.655 51.8651 167.397 51.5067 165.57 49.6329C163.276 47.2799 163.148 46.7178 164.348 44.2565C164.872 43.1823 165.137 42.8653 165.847 42.4693C166.702 41.9924 168.284 42.0738 169.669 42.6665C170.064 42.8354 170.875 42.8108 171.471 42.6125C172.482 42.2758 172.627 42.3339 173.614 43.4715C174.952 45.0142 175.226 46.1256 174.613 47.5221Z" fill="#FD73C5"/>
</svg>
