<svg width="106" height="289" viewBox="0 0 106 289" fill="none" xmlns="http://www.w3.org/2000/svg">
<path fill-rule="evenodd" clip-rule="evenodd" d="M79.5891 0.138645C79.8594 0.286297 81.204 0.924696 82.5771 1.55739C83.9502 2.19008 86.1271 3.47188 87.415 4.40594L89.7564 6.10395L91.3385 5.31682C94.8444 3.57174 96.6768 2.88947 98.4048 2.68476C101.255 2.34701 101.561 3.02179 100.358 6.9813C100.226 7.41605 100.293 7.56478 100.55 7.40607C101.087 7.07367 101.05 7.66963 100.499 8.21887C100.253 8.46317 99.7319 10.286 99.3395 12.2697C98.7892 15.0526 98.4633 15.9656 97.9129 16.2659C96.7581 16.8965 96.6754 17.2745 97.5428 17.9568C98.4005 18.6316 101.688 24.3736 103.867 29.005L105.147 31.7248L103.712 32.5316C102.354 33.2948 102.031 33.3251 97.7763 33.0926C95.3015 32.9571 92.5333 32.7224 91.6249 32.5708C89.9868 32.298 88.8184 32.681 88.8184 33.4909C88.8184 33.6842 88.5331 34.1005 88.1843 34.4161C87.8355 34.7317 87.5145 35.4222 87.4706 35.9504C87.4268 36.4786 86.9499 37.6145 86.4107 38.4748C85.4663 39.9819 85.3718 40.0354 83.8343 39.9384L82.2379 39.8375L80.4136 34.7745C78.3608 29.0771 77.3204 27.4354 75.3589 26.7995C73.5225 26.2043 69.3112 24.0737 69.0113 23.5886C68.87 23.36 70.0627 21.9602 71.8288 20.2807C76.2591 16.0676 76.5058 15.3839 76.1521 8.29554C75.7009 -0.742631 75.54 0.279518 77.4492 0.0598229C78.3561 -0.0443184 79.3191 -0.00900727 79.5891 0.138645ZM100.588 8.80912C100.588 8.9072 100.508 8.98744 100.409 8.98744C100.311 8.98744 100.231 8.9072 100.231 8.80912C100.231 8.71104 100.311 8.63079 100.409 8.63079C100.508 8.63079 100.588 8.71104 100.588 8.80912ZM72.7964 16.6087C71.8309 17.6565 71.6405 17.7588 71.8958 17.0933C71.9914 16.844 72.4276 16.4218 72.8652 16.155C73.6242 15.6924 73.6209 15.7135 72.7964 16.6087ZM71.3427 18.082C71.3427 18.18 71.2624 18.2603 71.1643 18.2603C71.0663 18.2603 70.986 18.18 70.986 18.082C70.986 17.9839 71.0663 17.9036 71.1643 17.9036C71.2624 17.9036 71.3427 17.9839 71.3427 18.082Z" fill="#FFE04A"/>
<path d="M34.764 222.826C24.2931 233.061 12.738 242.806 2.85833 253.675C8.69885 230.886 18.1131 207.363 16.9176 183.664C16.5006 175.396 14.4492 170.514 11.8783 162.786C11.8511 162.704 7.41999 152.145 8.61894 149.564C10.2665 146.017 21.558 144.806 25.4257 144.228C36.9138 142.512 39.8662 142.254 51.2001 139.003C60.0696 136.459 60.9524 135.252 67.2061 130.54C72.794 126.329 83.5169 123.592 82.7464 124.05C79.0246 126.265 76.1115 132.91 72.4763 135.252C65.3357 139.852 60.5394 149.426 57.0224 156.813C50.1653 171.216 54.0403 187.623 54.1165 202.93C54.1299 205.635 51.7028 206.933 49.8479 208.584C44.6844 213.178 39.7057 217.996 34.764 222.826Z" fill="#FFE04A"/>
<path fill-rule="evenodd" clip-rule="evenodd" d="M85.2166 259.392C85.317 259.556 85.8464 260.324 86.393 261.097C86.9397 261.87 87.7191 263.247 88.1251 264.157L88.8634 265.811L89.968 265.88C92.4161 266.031 93.6237 266.235 94.6251 266.665C96.2767 267.374 96.2317 267.836 94.3391 269.607C94.1312 269.802 94.1209 269.903 94.3099 269.898C94.7057 269.886 94.499 270.197 94.0277 270.323C93.8181 270.378 92.9645 271.204 92.1305 272.157C90.9605 273.494 90.4978 273.887 90.1052 273.878C89.2814 273.858 89.1181 274.037 89.3749 274.679C89.6289 275.313 89.6137 279.457 89.3455 282.652L89.188 284.528L88.1568 284.516C87.1813 284.505 86.9969 284.42 84.7617 282.962C83.4618 282.113 82.0337 281.119 81.5885 280.752C80.7854 280.091 80.0317 279.933 79.7781 280.373C79.7176 280.477 79.4325 280.614 79.1444 280.676C78.8564 280.738 78.466 281.012 78.2768 281.285C78.0876 281.557 77.4733 282.024 76.9114 282.322C75.9271 282.844 75.8591 282.843 75.0555 282.309L74.2213 281.754L74.8173 278.437C75.488 274.704 75.4378 273.487 74.573 272.528C73.7633 271.63 72.1463 269.156 72.1355 268.799C72.1305 268.63 73.2158 268.245 74.6997 267.887C78.4221 266.989 78.77 266.695 80.7979 262.74C83.3836 257.696 82.9763 258.2 84.0806 258.679C84.6051 258.906 85.1164 259.227 85.2166 259.392ZM93.8913 270.671C93.8605 270.724 93.7919 270.742 93.7387 270.712C93.6855 270.681 93.6671 270.612 93.6978 270.559C93.7285 270.506 93.7972 270.487 93.8504 270.518C93.9036 270.549 93.922 270.617 93.8913 270.671ZM76.3744 266.198C75.5226 266.464 75.3873 266.46 75.7342 266.179C75.8641 266.074 76.2329 265.981 76.5539 265.973C77.1104 265.96 77.102 265.971 76.3744 266.198ZM75.1246 266.542C75.0938 266.595 75.0252 266.613 74.972 266.583C74.9188 266.552 74.9004 266.483 74.9311 266.43C74.9618 266.377 75.0305 266.359 75.0837 266.389C75.1369 266.42 75.1553 266.489 75.1246 266.542Z" fill="#FFE04A"/>
</svg>
