<svg width="68" height="69" viewBox="0 0 68 69" fill="none" xmlns="http://www.w3.org/2000/svg">
<path fill-rule="evenodd" clip-rule="evenodd" d="M28.2749 8.90439C26.8463 11.1 25.3547 14.3432 24.2706 17.6108C23.1419 21.0131 22.9936 21.2625 22.1435 21.1907C21.6409 21.1484 20.6732 21.2798 19.9929 21.4827C19.3125 21.6855 18.1281 21.8807 17.361 21.9168C15.877 21.9865 12.4601 23.0523 10.823 23.9564C10.2797 24.2562 9.5384 24.9242 9.17539 25.4413C8.81221 25.958 8.34496 26.368 8.13737 26.3527C7.92978 26.3374 7.83833 26.6678 7.93365 27.0873C8.02896 27.5068 7.96188 27.8393 7.78396 27.8261C7.26174 27.7875 8.11107 31.1517 9.05904 32.8753C9.5392 33.7482 10.3353 34.9875 10.8279 35.6293C11.3209 36.271 12.1504 37.4468 12.6718 38.2419C13.1933 39.0374 13.6945 39.5629 13.7854 39.4103C13.8766 39.2576 14.0684 39.5252 14.2118 40.005C14.3744 40.5483 14.6211 40.8005 14.8659 40.6731C15.0821 40.5606 15.2874 40.7159 15.3216 41.0186C15.3561 41.3212 15.6802 41.6327 16.0417 41.7108C16.4037 41.7891 16.6852 42.0439 16.6681 42.277C16.6506 42.5102 16.8596 42.7174 17.1323 42.7377C17.9076 42.7953 17.9492 44.4699 17.261 47.9157C16.5635 51.4069 16.5125 54.8188 17.1398 56.0247C18.1353 57.9387 21.0771 58.4436 24.107 57.2199C25.0267 56.8485 27.5419 55.3426 29.6967 53.8736C34.8339 50.3716 35.6582 50.1355 38.298 51.4119C44.0709 54.2028 49.8357 54.9008 52.7118 53.1571L54.1356 52.2936L53.8269 50.2089C53.5111 48.0784 53.2864 47.4462 50.8855 41.9412C49.7863 39.4206 49.5638 38.5643 49.788 37.7153C49.9428 37.1298 50.2326 36.5655 50.4321 36.4617C51.2618 36.0302 53.4659 32.5527 54.4067 30.1908C56.2418 25.5846 56.1647 21.4722 54.2013 19.2586C53.5421 18.5155 49.9597 18.3369 48.7136 18.9851C48.3474 19.1756 47.3713 19.2603 46.5444 19.1736C45.3107 19.0441 42.6593 19.3614 40.1139 19.9428C39.7698 20.0214 38.9765 18.7166 36.8862 14.6377C34.6818 10.3344 33.8829 9.03941 32.9797 8.30287C31.2855 6.92163 29.4087 7.16141 28.2749 8.90439Z" fill="#16E912"/>
<path fill-rule="evenodd" clip-rule="evenodd" d="M25.1253 19.4444C25.0621 19.7365 24.889 19.9664 24.741 19.9553C24.5928 19.9447 24.1772 20.6957 23.8175 21.625C23.4577 22.5543 23.0318 23.3832 22.8711 23.4669C22.71 23.5506 22.641 23.739 22.7173 23.8856C22.7935 24.0323 22.9631 24.0965 23.094 24.0284C23.2249 23.9603 23.5004 24.0535 23.7062 24.2357C23.9118 24.418 23.9399 24.5566 23.7687 24.544C23.4293 24.5186 23.4078 25.5206 23.7397 25.8944C23.8528 26.0219 24.2595 26.6487 24.643 27.2877C25.0268 27.9265 25.5318 28.6546 25.766 28.9055C25.9998 29.1564 26.3132 29.574 26.4624 29.8335C26.6119 30.0928 26.8067 30.1828 26.8958 30.0336C26.9849 29.8839 27.2197 29.9054 27.4179 30.0807C27.6159 30.2562 27.6811 30.4499 27.5624 30.5116C27.4441 30.5732 27.3663 30.9948 27.39 31.4482C27.4135 31.9017 27.2504 32.3677 27.0273 32.4837C26.8044 32.5997 26.7153 32.8746 26.8298 33.0946C27.1013 33.6166 26.851 33.7255 25.9327 33.4853C25.5218 33.3779 24.7423 33.364 24.2007 33.4547C23.6476 33.5472 23.0598 33.4228 22.8609 33.1712C22.6427 32.8951 22.6532 32.7335 22.8883 32.7511C23.2838 32.7802 22.7412 32.1525 22.094 31.8317C21.9105 31.7408 21.3866 30.908 20.9298 29.9809C20.4731 29.0542 20.0212 28.3364 19.9257 28.386C19.8304 28.4359 19.2492 28.0512 18.6345 27.5316C18.0195 27.0117 17.2717 26.6283 16.9721 26.6795C16.6726 26.7309 16.3502 26.6327 16.2558 26.4616C16.161 26.2904 16.0709 26.4097 16.0554 26.7264C16.0383 27.0809 15.7955 27.3552 15.4243 27.4395C15.0925 27.5152 14.8302 27.4545 14.8414 27.3047C14.8744 26.8583 13.9638 26.8205 13.4562 27.2468C13.1969 27.4646 12.7107 27.7758 12.3762 27.9383C12.0099 28.1159 11.8498 28.3916 11.9741 28.6305C12.0877 28.8488 12.0049 29.1189 11.79 29.2306C11.2762 29.4979 11.2838 30.5271 11.8119 32.206C12.0474 32.9558 12.4101 34.365 12.6176 35.3377C13.1916 38.0282 14.1062 39.5887 15.375 40.0429C15.951 40.249 16.4099 40.5899 16.3943 40.8003C16.3787 41.0106 16.4408 41.0617 16.5324 40.9141C16.6243 40.7664 17.0405 40.6048 17.4573 40.5549C18.162 40.471 18.2525 40.5668 18.7396 41.9103C19.147 43.0341 19.3143 43.2712 19.4909 42.9751C19.6158 42.7652 19.6786 43.2149 19.63 43.9739C19.4705 46.4684 19.5345 48.93 19.7827 49.85C20.1455 51.1948 20.9874 52.6935 21.3482 52.6363C21.5223 52.6084 22.1005 52.7053 22.6327 52.8513C23.4368 53.0719 23.8356 52.9763 24.9933 52.2857C28.6976 50.0761 29.7978 49.2209 29.5497 48.744C29.474 48.5984 29.5637 48.4908 29.749 48.5045C29.9343 48.5182 30.3982 48.1647 30.7802 47.7191C31.1622 47.2734 31.6353 46.8512 31.8313 46.7807C32.0275 46.7099 32.3157 46.6047 32.4719 46.5468C32.6281 46.489 32.7836 46.5412 32.8174 46.6635C32.9405 47.1066 33.8888 47.7346 34.9159 48.0537C36.3578 48.5015 37.4818 49.0147 37.6253 49.2907C37.8697 49.7605 40.9179 50.6119 42.0233 50.519C44.1901 50.337 47.2613 48.3293 46.4593 47.6191C46.2665 47.4484 46.1869 47.1782 46.2821 47.0186C46.4991 46.6543 45.5439 44.7789 45.0513 44.6022C44.8499 44.5302 44.2858 44.0689 43.7978 43.5774C43.3098 43.086 42.669 42.5809 42.3741 42.4548C41.8357 42.2254 40.1124 40.3959 39.7157 39.6331C39.5658 39.3449 39.762 39.1035 40.3869 38.807C40.8725 38.5767 41.4953 38.1617 41.7704 37.8848C42.1555 37.4978 42.3252 37.4861 42.5059 37.8335C42.7031 38.2127 42.9011 38.1669 43.7315 37.551C44.8024 36.7566 46.1843 34.6384 46.1023 33.9168C46.0733 33.6623 46.2698 33.4462 46.5603 33.4134C46.9495 33.3691 46.9665 33.2644 46.6318 32.968C46.2593 32.638 46.2817 32.5996 46.7844 32.7084C47.2752 32.8145 47.3139 32.7826 47.0146 32.5172C46.7935 32.3215 46.8274 31.8903 47.1029 31.3995C47.5639 30.577 47.2154 29.3359 46.5087 29.2834C46.304 29.2683 46.0754 29.0352 46.0002 28.7657C45.8156 28.102 44.1027 27.707 43.5559 28.2018C43.3166 28.4184 43.1787 28.7069 43.2493 28.8426C43.32 28.9786 43.2155 29.1437 43.0167 29.2095C42.351 29.4301 40.8414 31.3271 40.6649 32.1652C40.5581 32.6723 40.4917 32.7068 40.069 32.4751C39.7499 32.3 39.6492 32.3246 39.7627 32.5498C39.8559 32.7343 39.7664 32.9713 39.5641 33.0765C39.362 33.1816 39.0323 34.0503 38.8316 35.0066C38.6309 35.963 38.3282 36.6922 38.159 36.6267C37.8845 36.5209 36.4336 35.0347 35.6754 34.083C35.518 33.8853 35.2091 33.5785 34.9885 33.4013C34.3843 32.9151 33.715 31.7514 33.9669 31.6248C34.5928 31.31 34.5446 29.8531 33.872 28.748C33.4591 28.0702 33.2843 27.5355 33.4477 27.4504C33.6199 27.3609 33.5265 27.2222 33.2013 27.0854C32.9132 26.9639 32.6887 26.7101 32.7026 26.5213C32.7168 26.3323 32.5669 26.1661 32.3699 26.1513C31.7311 26.1039 31.1496 24.506 31.2252 23.0063C31.3109 21.3066 30.8653 19.3883 30.1839 18.5256C29.3378 17.4546 25.4012 18.1695 25.1253 19.4444ZM23.337 20.9058C23.3181 21.1579 23.3861 21.1793 23.5153 20.9621C23.6303 20.7695 23.6969 20.559 23.6632 20.4942C23.5476 20.2719 23.3669 20.4996 23.337 20.9058ZM14.8161 26.0154C14.7971 26.2675 14.8652 26.289 14.9944 26.0717C15.1093 25.8791 15.176 25.6686 15.1423 25.6038C15.0266 25.3815 14.846 25.6093 14.8161 26.0154ZM14.2227 26.4409C14.2608 26.5142 14.352 26.543 14.4253 26.5049C14.4986 26.4667 14.5274 26.3756 14.4893 26.3022C14.4512 26.2289 14.36 26.2001 14.2866 26.2383C14.2133 26.2764 14.1845 26.3676 14.2227 26.4409ZM44.2242 28.112C44.2624 28.1853 44.2336 28.2765 44.1603 28.3146C44.0869 28.3527 43.9957 28.3239 43.9576 28.2506C43.9195 28.1773 43.9483 28.0861 44.0216 28.048C44.0949 28.0098 44.1861 28.0386 44.2242 28.112ZM39.618 38.4684C39.7849 38.5679 39.8615 38.6805 39.7882 38.7187C39.7148 38.7568 39.5183 38.7066 39.3514 38.6071C39.1845 38.5076 39.1079 38.395 39.1812 38.3569C39.2546 38.3187 39.4511 38.3689 39.618 38.4684Z" fill="#FFE04A"/>
</svg>
