<svg width="48" height="53" viewBox="0 0 48 53" fill="none" xmlns="http://www.w3.org/2000/svg">
<path fill-rule="evenodd" clip-rule="evenodd" d="M33.5442 0.841527C33.1934 1.03312 31.4487 1.86151 29.6669 2.68249C27.8852 3.50348 25.0604 5.16674 23.3893 6.37878L20.351 8.58212L18.2981 7.56074C13.7489 5.29632 11.3711 4.41101 9.12889 4.14537C5.43076 3.70711 5.03279 4.5827 6.59424 9.72057C6.76593 10.2847 6.67894 10.4777 6.34573 10.2718C5.64784 9.84044 5.69595 10.6137 6.41188 11.3264C6.73028 11.6435 7.40687 14.0088 7.91594 16.5828C8.63002 20.1939 9.05301 21.3786 9.76709 21.7683C11.2656 22.5865 11.3729 23.0771 10.2474 23.9624C9.13444 24.838 4.86897 32.2889 2.04088 38.2986L0.379883 41.8278L2.24261 42.8747C4.00445 43.865 4.42285 43.9044 9.94436 43.6026C13.1556 43.4268 16.7478 43.1223 17.9265 42.9256C20.0521 42.5715 21.5682 43.0686 21.5682 44.1196C21.5682 44.3704 21.9384 44.9105 22.391 45.32C22.8436 45.7296 23.2601 46.6256 23.3171 47.3109C23.374 47.9963 23.9927 49.4703 24.6924 50.5865C25.9179 52.5423 26.0405 52.6117 28.0356 52.4858L30.1071 52.3549L32.4742 45.7851C35.138 38.3921 36.488 36.2619 39.0333 35.4367C41.4162 34.6643 46.8808 31.8997 47.27 31.2703C47.4533 30.9736 45.9057 29.1572 43.614 26.9779C37.8652 21.511 37.545 20.6238 38.0041 11.4259C38.5895 -0.302019 38.7982 1.02432 36.3209 0.739247C35.1441 0.604113 33.8945 0.649933 33.5442 0.841527ZM6.29618 12.0924C6.29618 12.2196 6.40031 12.3237 6.52758 12.3237C6.65484 12.3237 6.75897 12.2196 6.75897 12.0924C6.75897 11.9651 6.65484 11.861 6.52758 11.861C6.40031 11.861 6.29618 11.9651 6.29618 12.0924ZM42.3584 22.213C43.6112 23.5727 43.8583 23.7055 43.527 22.842C43.4029 22.5185 42.8369 21.9705 42.2691 21.6244C41.2843 21.0241 41.2884 21.0515 42.3584 22.213ZM44.2448 24.1248C44.2448 24.2521 44.3489 24.3562 44.4761 24.3562C44.6034 24.3562 44.7075 24.2521 44.7075 24.1248C44.7075 23.9976 44.6034 23.8934 44.4761 23.8934C44.3489 23.8934 44.2448 23.9976 44.2448 24.1248Z" fill="#EA9D09"/>
<path fill-rule="evenodd" clip-rule="evenodd" d="M33.5442 0.841527C33.1934 1.03312 31.4487 1.86151 29.6669 2.68249C27.8852 3.50348 25.0604 5.16674 23.3893 6.37878L20.351 8.58212L18.2981 7.56074C11.9787 4.41564 7.52121 3.24757 6.15783 4.37955C5.27437 5.1126 8.45974 21.0121 9.63846 21.7526C11.0615 22.6458 11.5076 21.4846 11.5155 16.8679C11.5196 14.4956 11.3757 11.8975 11.1962 11.0937L10.869 9.63217L12.4008 10.0292C13.2431 10.2477 15.4367 10.8937 17.2758 11.4648L20.6199 12.5033L25.3746 10.1158C27.9898 8.80286 30.9031 7.42236 31.8481 7.04889L33.5664 6.36906L33.3059 13.9819L33.0448 21.5948L36.3311 24.9005C38.1383 26.7183 39.6169 28.3714 39.6169 28.5741C39.6169 28.7763 38.8954 29.0776 38.0138 29.2428C37.1317 29.4085 36.1691 29.8342 35.8743 30.1897C35.5795 30.5446 35.0839 30.8352 34.7729 30.8352C33.6714 30.8352 32.626 32.6137 31.3418 36.6752C30.6263 38.9354 29.6234 41.5992 29.1125 42.5937L28.1837 44.4023L26.9777 41.8537C26.2784 40.3751 25.0604 38.7619 24.0769 38.0122L22.3818 36.7191L17.2314 37.056C14.3987 37.2411 11.0402 37.4596 9.76799 37.5415C8.49625 37.6229 7.33189 37.6137 7.18148 37.5207C6.77932 37.2722 8.6703 31.982 10.3738 28.5893C11.1855 26.9724 11.8496 25.2665 11.8496 24.7986C11.8496 23.5412 10.9861 23.2312 9.99108 24.1318C9.00673 25.0226 4.55844 32.9488 2.04088 38.2986L0.379883 41.8278L2.24261 42.8747C4.00445 43.865 4.42285 43.9044 9.94436 43.6026C13.1556 43.4268 16.7478 43.1223 17.9265 42.9256C20.0521 42.5715 21.5682 43.0686 21.5682 44.1196C21.5682 44.3704 21.9384 44.9105 22.391 45.32C22.8436 45.7296 23.2601 46.6256 23.3171 47.3109C23.374 47.9963 23.9927 49.4703 24.6924 50.5865C25.9174 52.5418 26.041 52.6117 28.0333 52.4858L30.1019 52.3549L32.7565 45.0095C34.2162 40.9694 35.736 37.3046 36.133 36.8658C36.5301 36.4271 37.7366 35.8037 38.8144 35.4812C41.2394 34.7551 46.8401 31.9658 47.27 31.2703C47.4533 30.9736 45.9057 29.1572 43.614 26.9779C37.8652 21.511 37.545 20.6238 38.0041 11.4259C38.5895 -0.302019 38.7982 1.02432 36.3209 0.739247C35.1441 0.604113 33.8945 0.649933 33.5442 0.841527ZM42.3584 22.213C43.6112 23.5727 43.8583 23.7055 43.527 22.842C43.4029 22.5185 42.8369 21.9705 42.2691 21.6244C41.2843 21.0241 41.2884 21.0515 42.3584 22.213ZM44.2448 24.1248C44.2448 24.2521 44.3489 24.3562 44.4761 24.3562C44.6034 24.3562 44.7075 24.2521 44.7075 24.1248C44.7075 23.9976 44.6034 23.8934 44.4761 23.8934C44.3489 23.8934 44.2448 23.9976 44.2448 24.1248Z" fill="#FFE04A"/>
</svg>
